<svg width="24" height="25" viewBox="0 0 24 25" fill="none" xmlns="http://www.w3.org/2000/svg">
<g clip-path="url(#clip0_1_1298)">
<path fill-rule="evenodd" clip-rule="evenodd" d="M19.5346 8.18939C19.5346 6.49377 18.1605 5.11963 16.4648 5.11963H7.53459C5.83899 5.11963 4.46484 6.49377 4.46484 8.18939V17.1196C4.46484 18.8152 5.83899 20.1894 7.53459 20.1894H16.4648C18.1605 20.1894 19.5346 18.8152 19.5346 17.1196V8.18939ZM14.2323 10.422V14.887C14.2323 15.3492 14.6074 15.7243 15.0695 15.7243C15.5316 15.7243 15.9067 15.3492 15.9067 14.887V10.422C15.9067 9.95984 15.5316 9.58476 15.0695 9.58476C14.6074 9.58476 14.2323 9.95984 14.2323 10.422ZM13.116 14.887V11.5382C13.116 10.4599 12.242 9.58476 11.1625 9.58476H10.0463C8.96679 9.58476 8.09274 10.4599 8.09274 11.5382V14.887C8.09274 15.3492 8.46781 15.7243 8.92996 15.7243C9.39211 15.7243 9.76719 15.3492 9.76719 14.887V14.0499H11.4416V14.887C11.4416 15.3492 11.8166 15.7243 12.2788 15.7243C12.7409 15.7243 13.116 15.3492 13.116 14.887ZM9.76719 12.3754H11.4416V11.5382C11.4416 11.3842 11.3165 11.2591 11.1625 11.2591H10.0463C9.89221 11.2591 9.76719 11.3842 9.76719 11.5382V12.3754Z" fill="white"/>
<path fill-rule="evenodd" clip-rule="evenodd" d="M18.6975 13.4913H23.1626C23.6248 13.4913 23.9999 13.1163 23.9999 12.6541C23.9999 12.192 23.6248 11.8169 23.1626 11.8169H18.6975C18.2354 11.8169 17.8604 12.192 17.8604 12.6541C17.8604 13.1163 18.2354 13.4913 18.6975 13.4913Z" fill="white"/>
<path fill-rule="evenodd" clip-rule="evenodd" d="M12.8375 5.95662V1.49151C12.8375 1.02937 12.4625 0.654297 12.0003 0.654297C11.5382 0.654297 11.1631 1.02937 11.1631 1.49151V5.95662C11.1631 6.41876 11.5382 6.79383 12.0003 6.79383C12.4625 6.79383 12.8375 6.41876 12.8375 5.95662Z" fill="white"/>
<path fill-rule="evenodd" clip-rule="evenodd" d="M11.1631 19.3519V23.817C11.1631 24.2791 11.5382 24.6542 12.0003 24.6542C12.4625 24.6542 12.8375 24.2791 12.8375 23.817V19.3519C12.8375 18.8897 12.4625 18.5146 12.0003 18.5146C11.5382 18.5146 11.1631 18.8897 11.1631 19.3519Z" fill="white"/>
<path fill-rule="evenodd" clip-rule="evenodd" d="M5.30233 11.8169H0.83721C0.37507 11.8169 0 12.192 0 12.6541C0 13.1163 0.37507 13.4913 0.83721 13.4913H5.30233C5.76446 13.4913 6.13954 13.1163 6.13954 12.6541C6.13954 12.192 5.76446 11.8169 5.30233 11.8169Z" fill="white"/>
<path fill-rule="evenodd" clip-rule="evenodd" d="M18.6975 10.1427H21.4883C21.9504 10.1427 22.3255 9.76764 22.3255 9.30549C22.3255 8.84334 21.9504 8.46826 21.4883 8.46826H18.6975C18.2354 8.46826 17.8604 8.84334 17.8604 9.30549C17.8604 9.76764 18.2354 10.1427 18.6975 10.1427Z" fill="white"/>
<path fill-rule="evenodd" clip-rule="evenodd" d="M9.48785 5.95652V3.16582C9.48785 2.70368 9.11278 2.32861 8.65063 2.32861C8.18855 2.32861 7.81348 2.70368 7.81348 3.16582V5.95652C7.81348 6.41866 8.18855 6.79373 8.65063 6.79373C9.11278 6.79373 9.48785 6.41866 9.48785 5.95652Z" fill="white"/>
<path fill-rule="evenodd" clip-rule="evenodd" d="M7.81348 19.3519V22.1426C7.81348 22.6047 8.18855 22.9798 8.65063 22.9798C9.11278 22.9798 9.48785 22.6047 9.48785 22.1426V19.3519C9.48785 18.8897 9.11278 18.5146 8.65063 18.5146C8.18855 18.5146 7.81348 18.8897 7.81348 19.3519Z" fill="white"/>
<path fill-rule="evenodd" clip-rule="evenodd" d="M5.30174 8.46826H2.51104C2.0489 8.46826 1.67383 8.84334 1.67383 9.30549C1.67383 9.76764 2.0489 10.1427 2.51104 10.1427H5.30174C5.76388 10.1427 6.13895 9.76764 6.13895 9.30549C6.13895 8.84334 5.76388 8.46826 5.30174 8.46826Z" fill="white"/>
<path fill-rule="evenodd" clip-rule="evenodd" d="M18.6975 16.8405H21.4883C21.9504 16.8405 22.3255 16.4654 22.3255 16.0032C22.3255 15.5411 21.9504 15.166 21.4883 15.166H18.6975C18.2354 15.166 17.8604 15.5411 17.8604 16.0032C17.8604 16.4654 18.2354 16.8405 18.6975 16.8405Z" fill="white"/>
<path fill-rule="evenodd" clip-rule="evenodd" d="M16.1862 5.95652V3.16582C16.1862 2.70368 15.8111 2.32861 15.3489 2.32861C14.8868 2.32861 14.5117 2.70368 14.5117 3.16582V5.95652C14.5117 6.41866 14.8868 6.79373 15.3489 6.79373C15.8111 6.79373 16.1862 6.41866 16.1862 5.95652Z" fill="white"/>
<path fill-rule="evenodd" clip-rule="evenodd" d="M14.5117 19.3519V22.1426C14.5117 22.6047 14.8868 22.9798 15.3489 22.9798C15.8111 22.9798 16.1862 22.6047 16.1862 22.1426V19.3519C16.1862 18.8897 15.8111 18.5146 15.3489 18.5146C14.8868 18.5146 14.5117 18.8897 14.5117 19.3519Z" fill="white"/>
<path fill-rule="evenodd" clip-rule="evenodd" d="M5.30174 15.166H2.51104C2.0489 15.166 1.67383 15.5411 1.67383 16.0032C1.67383 16.4654 2.0489 16.8405 2.51104 16.8405H5.30174C5.76388 16.8405 6.13895 16.4654 6.13895 16.0032C6.13895 15.5411 5.76388 15.166 5.30174 15.166Z" fill="white"/>
</g>
<defs>
<clipPath id="clip0_1_1298">
<rect width="24" height="24" fill="white" transform="translate(0 0.654297)"/>
</clipPath>
</defs>
</svg>
