<svg width="24" height="24" viewBox="0 0 24 24" fill="none" xmlns="http://www.w3.org/2000/svg">
<path fill-rule="evenodd" clip-rule="evenodd" d="M16.3789 8.4898L14.1979 15.0358C14.0669 15.4278 14.2789 15.8528 14.6719 15.9838C15.0649 16.1148 15.4899 15.9028 15.6209 15.5098L17.8019 8.9638C17.9329 8.57177 17.7209 8.14682 17.3279 8.0158C16.9349 7.88477 16.5099 8.0968 16.3789 8.4898Z" fill="white"/>
<path fill-rule="evenodd" clip-rule="evenodd" d="M18.2881 10.3492L19.9391 12.0001L18.2881 13.6511C17.9951 13.9441 17.9951 14.4191 18.2881 14.7121C18.5811 15.0052 19.0561 15.0052 19.3491 14.7121L21.5301 12.5302C21.8231 12.2371 21.8231 11.7631 21.5301 11.4701L19.3491 9.28813C19.0561 8.9951 18.5811 8.9951 18.2881 9.28813C17.9951 9.58115 17.9951 10.0561 18.2881 10.3492Z" fill="white"/>
<path fill-rule="evenodd" clip-rule="evenodd" d="M12.6508 9.28813L10.4698 11.4701C10.1767 11.7631 10.1767 12.2371 10.4698 12.5302L12.6508 14.7121C12.9438 15.0052 13.4188 15.0052 13.7118 14.7121C14.0047 14.4191 14.0047 13.9441 13.7118 13.6511L12.0607 12.0001L13.7118 10.3492C14.0047 10.0561 14.0047 9.58115 13.7118 9.28813C13.4188 8.9951 12.9438 8.9951 12.6508 9.28813Z" fill="white"/>
<path fill-rule="evenodd" clip-rule="evenodd" d="M16.75 15.284L16.569 15.826C16.264 16.742 15.272 17.238 14.356 16.933C13.85 16.764 13.472 16.387 13.287 15.928C12.805 15.957 12.313 15.787 11.944 15.419L9.76297 13.237C9.07897 12.554 9.07897 11.446 9.76297 10.763L11.944 8.58103C12.627 7.89801 13.736 7.89801 14.419 8.58103C14.727 8.88898 14.896 9.28303 14.927 9.68601L15.431 8.17401C15.637 7.55601 16.154 7.13 16.75 7.011V4C16.75 3.271 16.46 2.571 15.945 2.055C15.429 1.54 14.729 1.25 14 1.25C11.556 1.25 7.444 1.25 5 1.25C4.271 1.25 3.571 1.54 3.055 2.055C2.54 2.571 2.25 3.271 2.25 4V20C2.25 20.729 2.54 21.429 3.055 21.945C3.571 22.46 4.271 22.75 5 22.75H14C14.729 22.75 15.429 22.46 15.945 21.945C16.46 21.429 16.75 20.729 16.75 20V15.284ZM7.5 20.25H11.5C11.914 20.25 12.25 19.914 12.25 19.5C12.25 19.086 11.914 18.75 11.5 18.75H7.5C7.086 18.75 6.75 19.086 6.75 19.5C6.75 19.914 7.086 20.25 7.5 20.25ZM13.5 2.75H5.5L6.123 4.307C6.351 4.877 6.902 5.25 7.51598 5.25H11.484C12.098 5.25 12.649 4.877 12.877 4.307L13.5 2.75Z" fill="white"/>
</svg>
