<svg width="23" height="24" viewBox="0 0 23 24" fill="none" xmlns="http://www.w3.org/2000/svg">
<g clip-path="url(#clip0_1_1292)">
<path d="M19.8966 4.61203C19.4913 4.61578 19.0941 4.72401 18.7438 4.92607C18.3935 5.12814 18.1022 5.41709 17.8985 5.76456C15.395 5.36039 12.827 5.69436 10.5133 6.725L10.3483 6.55405L15.7976 0.666406C15.9295 0.521017 16.0008 0.331342 15.997 0.135784C15.9933 -0.0597749 15.9147 -0.246602 15.7772 -0.386862C15.7107 -0.454414 15.6309 -0.507699 15.5427 -0.543427C15.4546 -0.579155 15.36 -0.596564 15.2648 -0.594573C15.1696 -0.592597 15.0757 -0.571267 14.9892 -0.531903C14.9026 -0.492539 14.8251 -0.435978 14.7615 -0.365721L9.33164 5.49986L8.85073 5.0008C8.78421 4.93437 8.70508 4.88165 8.61792 4.84569C8.53075 4.80972 8.43731 4.79122 8.3429 4.79125C8.24849 4.79122 8.15494 4.80972 8.06777 4.84569C7.98061 4.88165 7.90148 4.93437 7.83495 5.0008L5.46899 7.45567C5.33412 7.59841 5.25914 7.78669 5.25914 7.98231C5.25914 8.17792 5.33412 8.3662 5.46899 8.50894L6.01857 9.07969L0.199476 15.3671C0.0675439 15.5125 -0.0036419 15.7022 0.000143584 15.8978C0.00392907 16.0933 0.0824907 16.2801 0.219952 16.4204C0.284865 16.486 0.362239 16.5382 0.447679 16.5739C0.533119 16.6095 0.624905 16.628 0.717603 16.6281C0.815241 16.6277 0.911686 16.6072 1.00088 16.5678C1.09007 16.5284 1.17001 16.471 1.23562 16.3993L6.822 10.3646C5.73111 12.6279 5.28016 15.1424 5.51718 17.64C5.11773 17.8516 4.78431 18.1675 4.55299 18.5535C4.32167 18.9396 4.20125 19.3811 4.2049 19.8302C4.19146 20.4646 4.43218 21.0785 4.87428 21.5373C5.31637 21.996 5.92382 22.2623 6.56351 22.2777C7.20335 22.2625 7.81101 21.9964 8.2533 21.5376C8.6956 21.0788 8.93645 20.4648 8.92302 19.8302C8.9319 19.261 8.73801 18.7069 8.37559 18.2655C8.01318 17.824 7.50541 17.5235 6.94158 17.4167C6.75606 15.2665 7.13777 13.1054 8.04911 11.1458C8.15778 11.2133 8.28322 11.2496 8.41146 11.2506C8.50663 11.2501 8.60065 11.2304 8.68794 11.1928C8.77524 11.1552 8.85396 11.1005 8.91929 11.0318L11.2853 8.57695C11.3688 8.48918 11.4303 8.38306 11.4646 8.26726C11.4989 8.15146 11.5051 8.02925 11.4827 7.91061C13.409 7.1601 15.4999 6.92308 17.5472 7.22314C17.5743 7.82837 17.8323 8.40079 18.2688 8.82463C18.7053 9.24846 19.2878 9.49206 19.8985 9.50614C20.5382 9.49071 21.1455 9.22445 21.5876 8.76568C22.0297 8.30692 22.2704 7.69307 22.257 7.05863C22.2702 6.42403 22.0292 5.81014 21.5867 5.35153C21.1442 4.89291 20.5364 4.62698 19.8966 4.61203ZM7.48652 19.8311C7.4891 19.9544 7.46722 20.0769 7.42204 20.1917C7.37686 20.3065 7.30933 20.4114 7.22327 20.5004C7.13721 20.5893 7.03426 20.6605 6.92043 20.71C6.80659 20.7595 6.68404 20.7863 6.55977 20.7888C6.43551 20.7863 6.31295 20.7595 6.19912 20.71C6.08529 20.6605 5.98245 20.5893 5.89639 20.5004C5.81033 20.4114 5.74269 20.3065 5.69751 20.1917C5.65233 20.0769 5.63044 19.9544 5.63303 19.8311C5.63044 19.7079 5.65233 19.5853 5.69751 19.4705C5.74269 19.3557 5.81033 19.2508 5.89639 19.1619C5.98245 19.0729 6.08529 19.0017 6.19912 18.9522C6.31295 18.9027 6.43551 18.8759 6.55977 18.8734C6.81041 18.8787 7.04867 18.9825 7.22225 19.1619C7.39584 19.3412 7.49058 19.5816 7.48561 19.8302L7.48652 19.8311ZM8.41327 9.45375L6.99441 7.98322L8.34562 6.58162L9.76266 8.05216L8.41327 9.45375ZM19.8985 8.01631C19.7742 8.0138 19.6517 7.98704 19.5378 7.93755C19.424 7.88806 19.3211 7.81681 19.235 7.72787C19.1489 7.63894 19.0814 7.53406 19.0362 7.41923C18.9911 7.3044 18.9692 7.18186 18.9718 7.05863C18.9692 6.93539 18.9911 6.81286 19.0362 6.69802C19.0814 6.58319 19.1489 6.47831 19.235 6.38938C19.3211 6.30044 19.424 6.2292 19.5378 6.17971C19.6517 6.13021 19.7742 6.10345 19.8985 6.10094C20.0228 6.10345 20.1453 6.13021 20.2592 6.17971C20.373 6.2292 20.4758 6.30044 20.5619 6.38938C20.6479 6.47831 20.7155 6.58319 20.7607 6.69802C20.8058 6.81286 20.8278 6.93539 20.8252 7.05863C20.8278 7.18201 20.8058 7.3047 20.7605 7.41964C20.7152 7.53459 20.6475 7.63956 20.5612 7.72851C20.4749 7.81747 20.3718 7.88868 20.2578 7.93807C20.1437 7.98745 20.021 8.01404 19.8966 8.01631H19.8985Z" fill="white"/>
<path d="M12.6805 17.4847C12.7741 17.4796 12.8658 17.4562 12.9504 17.4159C13.0349 17.3755 13.1106 17.3191 13.1731 17.2497C13.2356 17.1804 13.2837 17.0995 13.3147 17.0117C13.3456 16.9239 13.3588 16.8309 13.3535 16.738L13.2611 14.7396L19.6707 21.0962C19.7326 21.1641 19.8077 21.2189 19.8915 21.2575C19.9752 21.2961 20.0659 21.3176 20.1582 21.3208C20.2505 21.3239 20.3425 21.3087 20.4287 21.2759C20.5149 21.2431 20.5937 21.1935 20.6602 21.1299C20.7251 21.0674 20.7763 20.9922 20.8108 20.9092C20.8453 20.8262 20.8623 20.7371 20.8607 20.6473C20.8591 20.5576 20.8389 20.4691 20.8015 20.3873C20.7641 20.3056 20.7102 20.2323 20.6431 20.172L14.2133 13.7953L16.2722 13.8473C16.4616 13.8557 16.6466 13.7894 16.7867 13.6629C16.9269 13.5363 17.0107 13.3598 17.0199 13.1721C17.0249 13.0847 17.0112 12.9974 16.9797 12.9157C16.9483 12.834 16.8998 12.7598 16.8374 12.698C16.7751 12.6361 16.7003 12.588 16.6179 12.5569C16.5355 12.5257 16.4474 12.5121 16.3594 12.517L11.7696 12.2804L12.0134 16.7984C12.0082 16.8877 12.0216 16.9771 12.0529 17.061C12.0841 17.1448 12.1326 17.2214 12.1951 17.2858C12.2576 17.3503 12.3329 17.4012 12.4162 17.4354C12.4995 17.4697 12.589 17.4864 12.6792 17.4847L12.6805 17.4847Z" fill="white"/>
</g>
<defs>
<clipPath id="clip0_1_1292">
<rect width="23" height="24" fill="white" transform="translate(0 -0.00927734)"/>
</clipPath>
</defs>
</svg>
