<svg width="24" height="24" viewBox="0 0 24 24" fill="none" xmlns="http://www.w3.org/2000/svg">
<g clip-path="url(#clip0_1_1280)">
<path d="M15.8545 14.9818C15.5636 14.9818 15.309 15.0546 15.1272 15.2C14.909 14.8364 14.509 14.5818 14.0363 14.5818C13.7454 14.5818 13.4909 14.6546 13.309 14.8364C13.0908 14.4727 12.6908 14.2182 12.2181 14.2182C12.0363 14.2182 11.8544 14.2545 11.6726 14.3273V11.5273C11.6726 9.85459 9.12722 9.81822 9.12722 11.5636V19.7818L8.07265 18.7273C7.52717 18.1818 6.65448 18.2546 6.21811 18.8C5.78175 19.3091 5.81812 20.0727 6.32721 20.5818L8.94542 23.2C9.19997 23.4909 9.56357 23.6364 9.96355 23.6364H15.7817C16.5818 23.6364 17.1999 22.9818 17.1999 22.2182V16.2546C17.1272 15.5637 16.5818 14.9818 15.8545 14.9818Z" fill="white"/>
<path d="M21.2728 9.12718C20.291 9.12718 19.491 9.81808 19.3455 10.7272H14.0001C14.0364 10.3636 14.0364 9.99988 14.0001 9.70896L19.7092 6.54535C20.0001 6.90899 20.4365 7.16354 20.9819 7.16354C21.8546 7.16354 22.5455 6.43627 22.5455 5.5999C22.5455 4.72717 21.8183 4.03627 20.9819 4.03627C20.0001 4.03627 19.2365 4.94536 19.4183 5.89081L13.8182 8.98168C13.7456 8.76351 13.6364 8.54533 13.5274 8.36353L15.4547 4.36354C16.3637 4.61809 17.4182 3.89081 17.4182 2.83627C17.4182 1.96354 16.691 1.27263 15.8546 1.27263C14.9819 1.27263 14.291 1.96354 14.291 2.83627C14.291 3.30899 14.5091 3.74536 14.8364 4.03627L13.091 7.70901C12.5092 7.09081 11.7092 6.65445 10.8001 6.58172V3.49081C11.491 3.34536 12.0365 2.69081 12.0365 1.96354C12.0365 1.09081 11.3456 0.399902 10.4728 0.399902C9.6001 0.399902 8.9092 1.09081 8.9092 1.96354C8.9092 2.69081 9.4183 3.34536 10.1092 3.49081V6.61808C9.70915 6.65445 9.34555 6.76354 8.98195 6.90899L6.47282 4.47263C6.61828 4.21808 6.72736 3.92718 6.72736 3.63627C6.72736 2.76354 6.03646 2.07263 5.16373 2.07263C4.291 2.07263 3.60009 2.76354 3.60009 3.63627C3.60009 4.50899 4.291 5.19991 5.16373 5.19991C5.45464 5.19991 5.74555 5.12718 5.96373 4.98172L8.36372 7.309C7.74557 7.74538 7.27282 8.39991 7.01827 9.12718L4.54555 8.43628C4.54555 7.41808 3.70918 6.61808 2.72737 6.61808C1.70918 6.61808 0.90918 7.45445 0.90918 8.43628C0.90918 9.45448 1.74555 10.2544 2.72737 10.2544C3.491 10.2544 4.14555 9.78171 4.40009 9.12718L6.87282 9.81808C6.83645 10.2908 6.87282 10.7635 6.98191 11.1635L4.21828 13.8544C3.891 13.6363 3.52736 13.5272 3.12736 13.5272C2.03645 13.5272 1.16373 14.3999 1.16373 15.4908C1.16373 16.5817 2.03645 17.4544 3.12736 17.4544C4.21828 17.4544 5.091 16.5817 5.091 15.4908C5.091 15.0908 4.98191 14.6908 4.72736 14.3635L7.27282 11.8908C7.5637 12.4363 7.96375 12.909 8.47285 13.2363V11.5636C8.47285 9.74533 10.6547 8.83626 11.891 10.109C12.2546 10.4726 12.4728 10.9817 12.4728 11.5272V13.2363C13.1273 12.7999 13.6364 12.1817 13.891 11.4544H19.4183C19.6001 12.3635 20.4001 13.0545 21.3455 13.0545C22.4364 13.0545 23.3092 12.1817 23.3092 11.0908C23.2364 10.0363 22.3637 9.12718 21.2728 9.12718Z" fill="white"/>
</g>
<defs>
<clipPath id="clip0_1_1280">
<rect width="24" height="24" fill="white"/>
</clipPath>
</defs>
</svg>
