<svg width="18" height="18" viewBox="0 0 18 18" fill="none" xmlns="http://www.w3.org/2000/svg">
<g clip-path="url(#clip0_1_222)">
<path d="M15.336 3.66282C15.1037 2.73583 14.5686 1.91291 13.8156 1.32454C13.0625 0.736161 12.1346 0.416001 11.179 0.414818C10.4243 0.41209 9.6825 0.610569 9.03 0.989818C8.49989 0.506649 7.84252 0.18537 7.13561 0.0639632C6.42869 -0.0574431 5.7018 0.0261005 5.04086 0.304717C4.37992 0.583333 3.81258 1.04537 3.40591 1.63621C2.99924 2.22704 2.77024 2.92196 2.746 3.63882C1.87109 3.88189 1.11394 4.43385 0.614829 5.19242C0.115718 5.951 -0.0915188 6.86478 0.0315136 7.76445C0.154546 8.66413 0.599508 9.48871 1.28396 10.0854C1.96841 10.6822 2.84595 11.0106 3.754 11.0098H14.246C15.1466 11.0104 16.0174 10.6872 16.6995 10.0992C17.3816 9.51119 17.8296 8.69756 17.9618 7.80673C18.0939 6.9159 17.9014 6.00725 17.4194 5.24653C16.9374 4.48581 16.198 3.92373 15.336 3.66282Z" fill="#00BDAD"/>
<path d="M5.65999 12.0637V13.0637H3.79299C3.66567 12.6146 3.38022 12.2268 2.9893 11.9716C2.59839 11.7165 2.12839 11.6114 1.66604 11.6756C1.20368 11.7399 0.780177 11.9693 0.473666 12.3213C0.167154 12.6734 -0.00167847 13.1244 -0.00167847 13.5912C-0.00167847 14.058 0.167154 14.5091 0.473666 14.8612C0.780177 15.2132 1.20368 15.4426 1.66604 15.5068C2.12839 15.5711 2.59839 15.466 2.9893 15.2109C3.38022 14.9557 3.66567 14.5678 3.79299 14.1187H6.18799C6.32776 14.1187 6.46181 14.0632 6.56064 13.9644C6.65947 13.8655 6.71499 13.7315 6.71499 13.5918V12.0608L5.65999 12.0637Z" fill="#00BDAD"/>
<path d="M9.527 14.1949V12.0649H8.47201V14.1949C8.02291 14.3222 7.63501 14.6077 7.37989 14.9986C7.12477 15.3895 7.01964 15.8595 7.08391 16.3219C7.14819 16.7843 7.37752 17.2077 7.72959 17.5143C8.08166 17.8208 8.5327 17.9896 8.9995 17.9896C9.4663 17.9896 9.91735 17.8208 10.2694 17.5143C10.6215 17.2077 10.8508 16.7843 10.9151 16.3219C10.9793 15.8595 10.8742 15.3895 10.6191 14.9986C10.364 14.6077 9.9761 14.3222 9.527 14.1949Z" fill="#00BDAD"/>
<path d="M16.066 11.6616C15.6453 11.6622 15.2363 11.7998 14.9007 12.0534C14.5652 12.3071 14.3213 12.6631 14.206 13.0676H12.339V12.0676H11.285V13.5986C11.285 13.7384 11.3405 13.8725 11.4393 13.9713C11.5382 14.0701 11.6722 14.1256 11.812 14.1256H14.206C14.3042 14.4715 14.4969 14.7831 14.7625 15.0255C15.0281 15.2678 15.356 15.4313 15.7094 15.4976C16.0628 15.5638 16.4276 15.5301 16.763 15.4004C17.0983 15.2707 17.3908 15.05 17.6076 14.7631C17.8244 14.4763 17.9568 14.1347 17.9901 13.7767C18.0234 13.4187 17.9563 13.0585 17.7961 12.7366C17.636 12.4147 17.3892 12.1438 17.0836 11.9545C16.7779 11.7651 16.4255 11.6647 16.066 11.6646V11.6616Z" fill="#00BDAD"/>
</g>
<defs>
<clipPath id="clip0_1_222">
<rect width="18" height="17.98" fill="white" transform="translate(0 0.00976562)"/>
</clipPath>
</defs>
</svg>
