<svg width="15" height="18" viewBox="0 0 15 18" fill="none" xmlns="http://www.w3.org/2000/svg">
<g clip-path="url(#clip0_1_253)">
<path d="M10.2219 10.6094C9.33508 11.0981 8.31738 11.3785 7.23462 11.3785C6.15185 11.3785 5.13415 11.0988 4.24731 10.6094C1.78754 11.3716 0 13.6638 0 16.3742V16.5895C0 17.3684 0.631384 17.9998 1.41023 17.9998H13.0597C13.8385 17.9998 14.4692 17.3684 14.4692 16.5902V16.3749C14.4692 13.6638 12.6817 11.3716 10.2219 10.6094Z" fill="#00BDAD"/>
<path d="M7.23461 0C4.37953 0 2.06445 2.31438 2.06445 5.17015C2.06445 8.02592 4.37884 10.3403 7.23461 10.3403C10.0904 10.3403 12.4048 8.02523 12.4048 5.17015C12.4048 2.31508 10.0897 0 7.23461 0ZM9.5393 7.12315C8.96607 7.80508 8.1263 8.19692 7.23461 8.19692C6.34292 8.19692 5.50315 7.80577 4.92991 7.12315C4.70907 6.86008 4.74299 6.46685 5.00607 6.24531C5.26845 6.02377 5.66168 6.057 5.88461 6.32146C6.55545 7.12038 7.91445 7.12038 8.58461 6.32146C8.80753 6.057 9.20007 6.02377 9.46315 6.24531C9.72622 6.46615 9.76015 6.85938 9.5393 7.12315Z" fill="#00BDAD"/>
</g>
<defs>
<clipPath id="clip0_1_253">
<rect width="15" height="18" fill="white"/>
</clipPath>
</defs>
</svg>
