<svg width="17" height="18" viewBox="0 0 17 18" fill="none" xmlns="http://www.w3.org/2000/svg">
<g clip-path="url(#clip0_1_243)">
<path fill-rule="evenodd" clip-rule="evenodd" d="M15.4135 6.84446C15.8242 8.25233 15.8247 9.75558 15.4148 11.1567C16.0949 11.7201 16.2913 12.7101 15.8352 13.5C15.4938 14.0914 14.872 14.4224 14.2337 14.4225C14.0189 14.4225 13.8022 14.385 13.5936 14.3073C12.5798 15.3668 11.2783 16.1186 9.8602 16.4642C9.71233 17.3348 8.95309 18 8.04103 18C7.12834 18 6.36876 17.334 6.22152 16.4625C4.79685 16.1143 3.49466 15.363 2.48621 14.3074C2.28107 14.3839 2.0657 14.4237 1.84819 14.4237C1.68788 14.4237 1.52651 14.4026 1.3675 14.36C0.891308 14.2324 0.493304 13.927 0.246789 13.5C-0.209539 12.7096 -0.0125242 11.7187 0.668593 11.1555C0.257898 9.74763 0.257441 8.24439 0.667257 6.84334C-0.0127702 6.27996 -0.209223 5.28989 0.246824 4.5C0.493304 4.07303 0.891308 3.76763 1.36753 3.64001C1.74293 3.53943 2.13137 3.55932 2.48821 3.69281C3.50212 2.63331 4.80367 1.88135 6.22187 1.53577C6.36974 0.665156 7.12894 0 8.04103 0C8.95369 0 9.71331 0.666035 9.86055 1.53749C11.2851 1.88575 12.5873 2.637 13.5957 3.69246C14.4237 3.38523 15.3793 3.71014 15.8353 4.5C16.2916 5.29038 16.0946 6.28126 15.4135 6.84446ZM8.04103 14.3086C8.7938 14.3086 9.44233 14.7618 9.7292 15.4095C10.8673 15.1096 11.9134 14.5049 12.7468 13.6654C12.3302 13.0932 12.2624 12.3057 12.6384 11.6543C13.0148 11.0024 13.7316 10.6674 14.4359 10.7428C14.7452 9.60729 14.7447 8.39907 14.4343 7.25769C14.3695 7.26455 14.3047 7.26817 14.24 7.26817C13.6016 7.26817 12.9799 6.93717 12.6384 6.3457C12.2621 5.69377 12.3303 4.90553 12.7478 4.33325C11.919 3.49766 10.8723 2.89399 9.72854 2.59204C9.44127 3.23891 8.7932 3.69141 8.04103 3.69141C7.28827 3.69141 6.63974 3.23821 6.35283 2.59052C5.21511 2.89037 4.16924 3.49478 3.336 4.33392C3.46854 4.51547 3.56811 4.72152 3.62805 4.94515C3.75566 5.42138 3.69017 5.91873 3.44365 6.3457C3.10218 6.93714 2.48044 7.2682 1.84211 7.2682C1.77686 7.2682 1.7114 7.26455 1.64608 7.25755C1.33688 8.39303 1.33748 9.60124 1.64784 10.7426C2.35166 10.668 3.06755 11.0029 3.44365 11.6543C3.69017 12.0813 3.75563 12.5787 3.62805 13.0549C3.56796 13.279 3.46805 13.4856 3.33502 13.6674C4.16372 14.5027 5.21015 15.1061 6.35353 15.408C6.64076 14.7611 7.28887 14.3086 8.04103 14.3086ZM11.2377 6.54534L8.04083 8.39108L4.84396 6.54538L8.04083 4.69968L11.2377 6.54534ZM11.7651 11.1502L8.56819 12.9959V9.30446L11.7651 7.45876V11.1502ZM7.51348 9.30446L4.31662 7.45876V11.1502L7.51348 12.9959V9.30446Z" fill="#00BDAD"/>
</g>
<defs>
<clipPath id="clip0_1_243">
<rect width="17" height="18" fill="white"/>
</clipPath>
</defs>
</svg>
