<svg width="24" height="24" viewBox="0 0 24 24" fill="none" xmlns="http://www.w3.org/2000/svg">
<g clip-path="url(#clip0_1_211)">
<path d="M20.5014 3.53898C20.4907 3.53898 20.4907 3.52431 20.4814 3.51365C20.472 3.50298 20.4667 3.51365 20.4614 3.49898C18.2166 1.25869 15.1748 0.000488281 12.0034 0.000488281C8.83198 0.000488281 5.79012 1.25869 3.54537 3.49898L3.51471 3.51365L3.50004 3.54431C1.8197 5.22812 0.678365 7.37381 0.221298 9.7083C-0.235769 12.0428 0.0121059 14.4605 0.933375 16.6536C1.53797 18.0742 2.4077 19.3666 3.49604 20.4616C3.49604 20.4616 3.50671 20.4763 3.51071 20.4816C3.51471 20.487 3.53071 20.4923 3.53604 20.4963C5.78014 22.7399 8.82346 24.0002 11.9967 24.0002C15.17 24.0002 18.2133 22.7399 20.4574 20.4963C20.4574 20.4963 20.472 20.4963 20.4774 20.4816C20.4827 20.467 20.488 20.471 20.492 20.4616C22.734 18.2167 23.9932 15.1737 23.9932 12.001C23.9932 8.82828 22.734 5.78528 20.492 3.54031L20.5014 3.53898ZM22.972 11.4936H21.9494C21.8334 9.20372 20.9278 7.02466 19.3867 5.32698L20.1107 4.60298C21.8436 6.49287 22.8565 8.93213 22.972 11.4936ZM12.5067 1.02831C15.0682 1.14383 17.5075 2.15673 19.3974 3.88965L18.6734 4.61365C16.9757 3.07252 14.7966 2.16697 12.5067 2.05098V1.02831ZM11.2107 18.2736V17.7163C11.21 17.6566 11.1883 17.599 11.1494 17.5536C11.1355 17.5389 11.1204 17.5256 11.104 17.5136C11.082 17.4957 11.0559 17.4833 11.028 17.4776C10.5257 17.3196 10.0701 17.04 9.70164 16.6637C9.33321 16.2874 9.06337 15.8259 8.91604 15.3203C8.86094 15.119 8.8867 14.9041 8.98784 14.7215C9.08898 14.5389 9.25748 14.4031 9.45737 14.343C9.55713 14.3132 9.66181 14.3037 9.76529 14.3149C9.86877 14.3261 9.96898 14.3579 10.06 14.4083C10.2425 14.5117 10.377 14.6827 10.4347 14.8843C10.5204 15.1752 10.6853 15.4365 10.911 15.6389C11.1367 15.8414 11.4144 15.977 11.7128 16.0306C12.0112 16.0842 12.3187 16.0537 12.6008 15.9424C12.8829 15.8312 13.1284 15.6436 13.3099 15.4007C13.4914 15.1578 13.6017 14.8692 13.6285 14.5672C13.6553 14.2651 13.5974 13.9616 13.4615 13.6906C13.3255 13.4196 13.1168 13.1917 12.8587 13.0326C12.6006 12.8735 12.3033 12.7894 12 12.7896C11.2341 12.7895 10.4935 12.5153 9.91214 12.0166C9.33078 11.5179 8.94702 10.8277 8.83025 10.0707C8.71348 9.31373 8.87141 8.53995 9.27548 7.88927C9.67955 7.23859 10.3031 6.75395 11.0334 6.52298C11.0849 6.50657 11.1298 6.47422 11.1617 6.4306C11.1935 6.38697 11.2107 6.33434 11.2107 6.28031V5.72831C11.2107 5.51879 11.2939 5.31785 11.4421 5.1697C11.5902 5.02154 11.7912 4.93831 12.0007 4.93831C12.2102 4.93831 12.4112 5.02154 12.5593 5.1697C12.7075 5.31785 12.7907 5.51879 12.7907 5.72831V6.28031C12.7907 6.33434 12.8079 6.38697 12.8398 6.4306C12.8716 6.47422 12.9166 6.50657 12.968 6.52298C13.4718 6.67917 13.9289 6.95807 14.2983 7.33463C14.6676 7.71118 14.9376 8.17359 15.084 8.68031C15.1391 8.88164 15.1134 9.09654 15.0122 9.27913C14.9111 9.46173 14.7426 9.59756 14.5427 9.65765C14.443 9.68729 14.3384 9.69676 14.235 9.68551C14.1316 9.67425 14.0314 9.6425 13.9404 9.59209C13.8494 9.54169 13.7694 9.47366 13.705 9.39196C13.6406 9.31027 13.5931 9.21656 13.5654 9.11631C13.4661 8.77822 13.2601 8.48136 12.978 8.27018C12.6959 8.05901 12.3531 7.94488 12.0007 7.94488C11.6484 7.94488 11.3055 8.05901 11.0234 8.27018C10.7413 8.48136 10.5353 8.77822 10.436 9.11631C10.3908 9.26734 10.367 9.42399 10.3654 9.58165C10.3675 10.014 10.5406 10.4281 10.8468 10.7333C11.1531 11.0386 11.5676 11.2103 12 11.211C12.8518 11.2124 13.6683 11.5517 14.2702 12.1543C14.8721 12.757 15.2104 13.5739 15.2107 14.4256C15.2086 14.7308 15.1638 15.0343 15.0774 15.327C14.9288 15.8305 14.6591 16.29 14.2919 16.6652C13.9246 17.0403 13.471 17.3198 12.9707 17.479C12.9413 17.4871 12.9137 17.5007 12.8894 17.519C12.8602 17.5434 12.8362 17.5735 12.8187 17.6074C12.8013 17.6413 12.7909 17.6783 12.788 17.7163V18.2736C12.788 18.4832 12.7048 18.6841 12.5567 18.8323C12.4085 18.9804 12.2076 19.0636 11.998 19.0636C11.7885 19.0636 11.5876 18.9804 11.4394 18.8323C11.2913 18.6841 11.208 18.4832 11.208 18.2736H11.2107ZM11.4934 1.02831V2.05098C9.20345 2.16697 7.02439 3.07252 5.32671 4.61365L4.60271 3.88431C6.49442 2.15498 8.93297 1.14427 11.4934 1.02831ZM3.89337 4.60298L4.61737 5.32698C3.07479 7.0241 2.1678 9.20322 2.05071 11.4936H1.02804C1.14592 8.93266 2.15849 6.49417 3.88937 4.60298H3.89337ZM1.02804 12.507H2.05071C2.16815 14.7956 3.07139 16.9736 4.60804 18.6736L3.88404 19.3976C2.15471 17.5059 1.144 15.0674 1.02804 12.507ZM11.4934 22.9723C8.93238 22.8544 6.4939 21.8419 4.60271 20.111L5.32671 19.387C7.02439 20.9281 9.20345 21.8337 11.4934 21.9496V22.9723ZM12.5054 22.9723V21.9496C14.7951 21.8327 16.9738 20.9273 18.672 19.387L19.396 20.1163C17.5043 21.8456 15.0658 22.8564 12.5054 22.9723ZM20.1054 19.3976L19.3814 18.6736C20.9225 16.976 21.8281 14.7969 21.944 12.507H22.9667C22.853 15.0676 21.8425 17.5068 20.112 19.3976H20.1054Z" fill="#00AA9C"/>
</g>
<defs>
<clipPath id="clip0_1_211">
<rect width="24" height="24" fill="white"/>
</clipPath>
</defs>
</svg>
