<svg width="18" height="18" viewBox="0 0 18 18" fill="none" xmlns="http://www.w3.org/2000/svg">
<g clip-path="url(#clip0_1_263)">
<path fill-rule="evenodd" clip-rule="evenodd" d="M12.5763 0C13.1539 0 13.727 0.202387 14.1748 0.623865C15.1598 1.55099 15.1771 3.10198 14.2275 4.05159L10.5698 7.70933L6.91203 4.05159C5.96241 3.10198 5.97976 1.55099 6.96471 0.623865C7.41253 0.202387 7.98564 0 8.56324 0C9.21345 0 9.87009 0.256357 10.3597 0.74594L10.5698 0.956679L10.7799 0.746583C11.2694 0.256357 11.9261 0 12.5763 0ZM15.9539 9.63913C16.5405 9.30053 17.2029 9.19259 17.7651 9.5736C18.0625 9.77598 18.078 10.2155 17.8088 10.4545L13.4031 15.3966C12.9193 15.8264 12.2942 16.0641 11.6466 16.0641H5.13998L3.85499 17.3491L0 13.4941L3.45985 10.0876C4.11134 9.42004 5.0616 8.99663 6.12301 8.99663C6.75522 8.99663 7.34761 9.14569 7.86161 9.40912C8.2471 9.61536 8.74761 9.64491 9.24105 9.64491C9.24105 9.64491 9.4807 9.63977 10.7124 9.63977C11.4223 9.63977 12.2171 10.051 12.2171 10.9248C12.2171 11.7472 11.4223 12.2098 10.7124 12.2098H8.684C8.52017 12.2098 8.36275 12.3505 8.36275 12.531C8.36275 12.6846 8.5298 12.858 8.684 12.858L11.9993 12.8574C11.9993 12.8574 15.3673 9.97773 15.9539 9.63913Z" fill="#00BDAD"/>
</g>
<defs>
<clipPath id="clip0_1_263">
<rect width="18" height="18" fill="white"/>
</clipPath>
</defs>
</svg>
