<svg width="18" height="16" viewBox="0 0 18 16" fill="none" xmlns="http://www.w3.org/2000/svg">
<g clip-path="url(#clip0_1_272)">
<path fill-rule="evenodd" clip-rule="evenodd" d="M12.5025 5.65247L13.125 6.11C13.5 6.3875 13.6125 6.905 13.38 7.31L12.825 8.3C12.5925 8.72 12.0825 8.885 11.655 8.6825L10.965 8.36C10.8225 8.4575 10.6875 8.54 10.5375 8.615L10.4625 9.4175C10.4175 9.89 10.0275 10.25 9.55498 10.25H8.44498C7.97249 10.25 7.58248 9.89 7.53748 9.4175L7.46248 8.615C7.31248 8.54 7.17748 8.4575 7.03499 8.36L6.34499 8.6825C5.91748 8.885 5.40749 8.7125 5.17498 8.3L4.61999 7.31C4.38749 6.905 4.49999 6.3875 4.87499 6.11L5.49749 5.6525C5.48998 5.5625 5.48248 5.4725 5.48248 5.375C5.48248 5.2775 5.48998 5.1875 5.49749 5.0975L4.87499 4.64C4.49999 4.3625 4.38749 3.845 4.61999 3.44L5.17498 2.45C5.40749 2.0375 5.91748 1.865 6.34499 2.0675L7.03499 2.39C7.17748 2.2925 7.31248 2.21 7.46248 2.135L7.53748 1.3325C7.58248 0.86 7.97249 0.5 8.44498 0.5H9.55498C10.0275 0.5 10.4175 0.86 10.4625 1.3325L10.5375 2.135C10.6875 2.21 10.8225 2.2925 10.965 2.39L11.655 2.0675C12.0825 1.865 12.5925 2.03 12.825 2.45L13.38 3.44C13.6125 3.845 13.5 4.3625 13.125 4.64L12.5025 5.0975C12.51 5.18749 12.5175 5.27751 12.5175 5.375C12.5175 5.47249 12.51 5.56248 12.5025 5.65247ZM8.99998 7.25C10.035 7.25 10.875 6.41 10.875 5.375C10.875 4.34 10.035 3.5 8.99998 3.5C7.96498 3.5 7.12498 4.34 7.12498 5.375C7.12498 6.41 7.96498 7.25 8.99998 7.25ZM2.25 11H15.75C16.9905 11 18 12.0095 18 13.25C18 14.4905 16.9905 15.5 15.75 15.5H2.25C1.0095 15.5 0 14.4905 0 13.25C0 12.0095 1.0095 11 2.25 11ZM2.25 13.25C2.25 13.6632 2.58675 14 3 14C3.41325 14 3.75 13.6632 3.75 13.25C3.75 12.8367 3.41325 12.5 3 12.5C2.58675 12.5 2.25 12.8367 2.25 13.25ZM6 13.25C6 13.6632 6.33675 14 6.75 14C7.16325 14 7.5 13.6632 7.5 13.25C7.5 12.8367 7.16325 12.5 6.75 12.5C6.33675 12.5 6 12.8367 6 13.25ZM10.5 13.25C10.5 13.6632 10.8368 14 11.25 14C11.6632 14 12 13.6632 12 13.25C12 12.8367 11.6632 12.5 11.25 12.5C10.8368 12.5 10.5 12.8367 10.5 13.25ZM14.25 13.25C14.25 13.6632 14.5868 14 15 14C15.4132 14 15.75 13.6632 15.75 13.25C15.75 12.8367 15.4132 12.5 15 12.5C14.5868 12.5 14.25 12.8367 14.25 13.25Z" fill="#00BDAD"/>
</g>
<defs>
<clipPath id="clip0_1_272">
<rect width="18" height="15" fill="white" transform="translate(0 0.5)"/>
</clipPath>
</defs>
</svg>
