<svg width="36" height="36" viewBox="0 0 36 36" fill="none" xmlns="http://www.w3.org/2000/svg">
<g clip-path="url(#clip0_1_3528)">
<path d="M18.5348 12.9866C18.0923 13.4291 17.7909 13.9929 17.6687 14.6067C17.5466 15.2205 17.6093 15.8567 17.8487 16.4349C18.0882 17.0131 18.4938 17.5073 19.0141 17.855C19.5345 18.2027 20.1463 18.3883 20.7721 18.3883C21.398 18.3883 22.0098 18.2027 22.5301 17.855C23.0505 17.5073 23.456 17.0131 23.6955 16.4349C23.935 15.8567 23.9976 15.2205 23.8755 14.6067C23.7534 13.9929 23.452 13.4291 23.0095 12.9866C22.4151 12.3951 21.6107 12.063 20.7721 12.063C19.9336 12.063 19.1292 12.3951 18.5348 12.9866ZM21.5179 15.9697C21.3704 16.1173 21.1824 16.2178 20.9777 16.2586C20.7731 16.2993 20.5609 16.2785 20.3681 16.1986C20.1753 16.1188 20.0105 15.9836 19.8945 15.8101C19.7785 15.6366 19.7166 15.4326 19.7166 15.2239C19.7166 15.0152 19.7785 14.8112 19.8945 14.6377C20.0105 14.4642 20.1753 14.3289 20.3681 14.2491C20.5609 14.1693 20.7731 14.1484 20.9777 14.1892C21.1824 14.2299 21.3704 14.3305 21.5179 14.4781C21.7158 14.6756 21.8274 14.9436 21.828 15.2232C21.8286 15.5028 21.7183 15.7713 21.5212 15.9697H21.5179Z" fill="white"/>
<path d="M34.1998 0.308951L32.2709 2.23703C25.7655 2.23703 23.1856 2.37308 17.0466 8.51205L12.9709 12.5877L6.06741 11.2072C5.85414 11.1646 5.63294 11.189 5.43407 11.277C5.23521 11.3651 5.0684 11.5124 4.95647 11.6988L0.480984 19.1566C0.376006 19.3318 0.324174 19.5338 0.331783 19.738C0.339392 19.9421 0.406116 20.1397 0.52385 20.3066C0.641584 20.4736 0.805264 20.6028 0.995013 20.6785C1.18476 20.7543 1.39242 20.7733 1.59276 20.7332L7.26849 19.5981L6.35036 22.3525C6.28845 22.5383 6.27947 22.7376 6.32443 22.9282C6.36939 23.1189 6.46652 23.2932 6.60493 23.4317C5.4756 23.5902 4.42866 24.1123 3.62267 24.9191C1.76554 26.7771 0.397518 31.3101 0.0068937 34.8283C-0.0112396 34.9861 0.00651265 35.146 0.0588253 35.296C0.111138 35.4461 0.19666 35.5823 0.309008 35.6947C0.421356 35.807 0.557628 35.8925 0.707653 35.9449C0.857678 35.9972 1.01758 36.0149 1.17543 35.9968C4.69355 35.6062 9.22745 34.2381 11.0846 32.3802C11.8938 31.5751 12.4176 30.5275 12.5761 29.3971C12.7147 29.5355 12.889 29.6326 13.0796 29.6776C13.2702 29.7225 13.4696 29.7136 13.6554 29.6517L16.4098 28.7335L15.2746 34.4092C15.2348 34.6095 15.2539 34.8171 15.3298 35.0067C15.4056 35.1963 15.5348 35.3598 15.7017 35.4774C15.8686 35.595 16.0661 35.6617 16.2702 35.6693C16.4742 35.6769 16.6761 35.6251 16.8513 35.5202L24.309 31.0455C24.4956 30.9337 24.643 30.7669 24.731 30.568C24.819 30.3691 24.8433 30.1479 24.8007 29.9346L23.4126 23.0286L27.4883 18.9529C33.6273 12.8139 33.76 10.234 33.7633 3.72858L35.6922 1.79967C35.8818 1.60012 35.9858 1.33441 35.9822 1.05922C35.9786 0.784035 35.8676 0.521152 35.6729 0.326657C35.4782 0.132161 35.2151 0.0214505 34.94 0.0181427C34.6648 0.0148349 34.3992 0.119192 34.1998 0.308951ZM6.38208 13.4207L11.1789 14.3798L8.32351 17.236L3.51667 18.1959L6.38208 13.4207ZM9.58886 30.8828C8.48043 31.9912 5.38966 33.1598 2.29805 33.6989C2.83725 30.6107 4.00578 27.5166 5.11422 26.4081C5.40692 26.1093 5.75596 25.8716 6.14114 25.7085C6.52633 25.5455 6.94002 25.4604 7.35828 25.4583C7.77655 25.4561 8.19109 25.5369 8.57793 25.696C8.96477 25.8551 9.31624 26.0892 9.612 26.385C9.90776 26.6808 10.1419 27.0322 10.301 27.4191C10.4601 27.8059 10.5409 28.2205 10.5387 28.6387C10.5366 29.057 10.4515 29.4707 10.2885 29.8559C10.1254 30.241 9.88765 30.5901 9.58886 30.8828ZM13.6053 27.4415L8.56056 22.3967L9.30591 20.159L15.8422 26.6953L13.6053 27.4415ZM22.5813 29.6174L17.8053 32.4828L18.7669 27.676L21.6181 24.8214L22.5813 29.6174ZM25.9959 17.4613L17.7928 25.6644L10.3351 18.2067L18.5382 10.0036C19.549 8.97124 20.6204 7.99992 21.7466 7.09479C22.3216 8.75181 23.2646 10.257 24.5048 11.4972C25.745 12.7374 27.2502 13.6804 28.9072 14.2554C28.0012 15.3808 27.029 16.4513 25.9959 17.4613ZM30.15 12.4367C28.5797 11.9969 27.149 11.1601 25.9959 10.007C24.8427 8.85382 24.006 7.42317 23.5662 5.85281C25.9592 4.48061 28.0993 4.36126 31.6524 4.35041C31.6424 7.90108 31.5222 10.0403 30.15 12.4367Z" fill="white"/>
</g>
<defs>
<clipPath id="clip0_1_3528">
<rect width="36" height="36" fill="white"/>
</clipPath>
</defs>
</svg>
