<svg width="36" height="26" viewBox="0 0 36 26" fill="none" xmlns="http://www.w3.org/2000/svg">
<g clip-path="url(#clip0_1_3518)">
<path d="M11.5725 6.52984L5.46749 12.5563C5.36915 12.653 5.29112 12.768 5.23787 12.8945C5.18463 13.0211 5.15723 13.1568 5.15723 13.2939C5.15723 13.4309 5.18463 13.5666 5.23787 13.6932C5.29112 13.8197 5.36915 13.9347 5.46749 14.0314L10.9801 19.473C11.1782 19.6686 11.447 19.7785 11.7272 19.7785C12.0075 19.7785 12.2763 19.6686 12.4745 19.473C12.6726 19.2774 12.784 19.0121 12.784 18.7354C12.784 18.4588 12.6726 18.1935 12.4745 17.9979L7.70732 13.2921L13.0696 7.99893C13.1677 7.90207 13.2455 7.78708 13.2986 7.66052C13.3517 7.53397 13.3791 7.39832 13.3791 7.26134C13.3791 7.12436 13.3517 6.98873 13.2986 6.86218C13.2455 6.73563 13.1677 6.62064 13.0696 6.52378C12.9714 6.42692 12.855 6.35007 12.7267 6.29765C12.5985 6.24523 12.4611 6.21826 12.3224 6.21826C12.1836 6.21826 12.0462 6.24523 11.918 6.29765C11.7898 6.35007 11.6733 6.42692 11.5752 6.52378L11.5725 6.52984Z" fill="white"/>
<path d="M25.0196 6.52964C24.8215 6.33402 24.5527 6.22412 24.2724 6.22412C23.9922 6.22412 23.7234 6.33402 23.5252 6.52964C23.3271 6.72525 23.2157 6.99057 23.2157 7.26722C23.2157 7.54386 23.3271 7.80917 23.5252 8.00479L28.2924 12.7105L22.9301 18.0037C22.7319 18.1993 22.6206 18.4647 22.6206 18.7413C22.6206 19.0179 22.7319 19.2833 22.9301 19.4789C23.1283 19.6745 23.3971 19.7844 23.6773 19.7844C23.9576 19.7844 24.2263 19.6745 24.4245 19.4789L30.5295 13.4524C30.6279 13.3557 30.7059 13.2407 30.7592 13.1142C30.8124 12.9876 30.8398 12.8519 30.8398 12.7149C30.8398 12.5778 30.8124 12.4421 30.7592 12.3155C30.7059 12.189 30.6279 12.074 30.5295 11.9773L25.0196 6.52964Z" fill="white"/>
<path d="M21.1211 4.22394C20.8573 4.13201 20.5673 4.14729 20.3149 4.2664C20.0625 4.38552 19.8684 4.59873 19.7752 4.85912L14.1985 20.448C14.1053 20.7084 14.1206 20.9947 14.2412 21.2439C14.3618 21.4932 14.5777 21.6849 14.8415 21.777C15.1053 21.869 15.3954 21.8539 15.6478 21.7348C15.9003 21.6158 16.0946 21.4026 16.1878 21.1422L21.7645 5.55331C21.8108 5.42432 21.8308 5.2876 21.8235 5.15096C21.8162 5.01432 21.7817 4.88044 21.7219 4.75698C21.6622 4.63352 21.5783 4.5229 21.4752 4.43144C21.3721 4.33997 21.2518 4.26947 21.1211 4.22394Z" fill="white"/>
<path d="M30.905 -0.000976562H5.09853C3.74631 -0.000976562 2.44948 0.529274 1.49332 1.47312C0.537165 2.41697 0 3.6971 0 5.0319L0 20.9705C0 22.3053 0.537165 23.5854 1.49332 24.5293C2.44948 25.4731 3.74631 26.0034 5.09853 26.0034H30.905C32.2572 26.0034 33.554 25.4731 34.5102 24.5293C35.4664 23.5854 36.0035 22.3053 36.0035 20.9705V5.0319C36.0035 3.6971 35.4664 2.41697 34.5102 1.47312C33.554 0.529274 32.2572 -0.000976562 30.905 -0.000976562ZM33.8938 20.9696C33.8938 21.7521 33.5789 22.5025 33.0184 23.0558C32.4579 23.6091 31.6977 23.9199 30.905 23.9199H5.09853C4.30585 23.9199 3.54564 23.6091 2.98513 23.0558C2.42463 22.5025 2.10974 21.7521 2.10974 20.9696V5.0319C2.10974 4.64446 2.18704 4.26081 2.33724 3.90287C2.48744 3.54492 2.7076 3.21968 2.98513 2.94572C3.26267 2.67176 3.59215 2.45444 3.95477 2.30617C4.31738 2.15791 4.70603 2.08159 5.09853 2.08159H30.905C31.6977 2.08159 32.4579 2.39243 33.0184 2.94572C33.5789 3.49901 33.8938 4.24943 33.8938 5.0319V20.9696Z" fill="white"/>
</g>
<defs>
<clipPath id="clip0_1_3518">
<rect width="36" height="26" fill="white"/>
</clipPath>
</defs>
</svg>
