<svg width="22" height="22" viewBox="0 0 22 22" fill="none" xmlns="http://www.w3.org/2000/svg">
<path d="M10.7422 2.75C6.32715 2.75 2.75 6.35938 2.75 10.7422C2.75 15.1572 6.32715 18.7344 10.7422 18.7344C15.125 18.7344 18.7344 15.1572 18.7344 10.7422C18.7344 6.35938 15.125 2.75 10.7422 2.75ZM15.9951 6.45605C16.9619 7.61621 17.542 9.09863 17.542 10.71C17.3164 10.6455 15.0605 10.1943 12.8047 10.4844C12.6113 10.0332 12.4502 9.64648 12.1924 9.13086C14.7383 8.09961 15.8662 6.64941 15.9951 6.45605ZM15.2539 5.65039C15.125 5.84375 14.0938 7.22949 11.6768 8.13184C10.5488 6.06934 9.32422 4.39355 9.13086 4.13574C11.29 3.62012 13.5781 4.16797 15.2539 5.65039ZM7.80957 4.58691C8.00293 4.84473 9.22754 6.52051 10.3555 8.55078C7.16504 9.38867 4.36133 9.38867 4.03906 9.35645C4.49023 7.26172 5.9082 5.48926 7.80957 4.58691ZM3.91016 10.7744C3.91016 10.71 3.91016 10.6455 3.91016 10.5488C4.2002 10.5811 7.51953 10.6133 10.9033 9.58203C11.1289 9.96875 11.29 10.3555 11.4834 10.7422C9.00195 11.4512 6.74609 13.4492 5.65039 15.3184C4.55469 14.126 3.91016 12.5146 3.91016 10.7744ZM6.52051 16.1562C7.26172 14.7061 9.19531 12.8047 11.9346 11.8701C12.9014 14.3516 13.2881 16.4463 13.3848 17.0586C11.1934 17.9932 8.55078 17.7354 6.52051 16.1562ZM14.5449 16.4141C14.4805 16.0273 14.0938 14.0293 13.2236 11.5479C15.3506 11.2256 17.2197 11.7734 17.4775 11.8379C17.1553 13.7393 16.0596 15.3828 14.5449 16.4141Z" fill="#D4D4D4"/>
</svg>
