<svg width="22" height="22" viewBox="0 0 22 22" fill="none" xmlns="http://www.w3.org/2000/svg">
<path d="M17.542 7.90259C18.1865 7.41919 18.7666 6.83911 19.2178 6.16235C18.6377 6.42017 17.9609 6.61353 17.2842 6.67798C17.9932 6.25903 18.5088 5.6145 18.7666 4.80884C18.1221 5.19556 17.3809 5.4856 16.6396 5.64673C15.9951 4.96997 15.125 4.58325 14.1582 4.58325C12.2891 4.58325 10.7744 6.0979 10.7744 7.96704C10.7744 8.22485 10.8066 8.48267 10.8711 8.74048C8.06738 8.57935 5.55371 7.22583 3.87793 5.19556C3.58789 5.67896 3.42676 6.25903 3.42676 6.90356C3.42676 8.06372 4.00684 9.09497 4.94141 9.70728C4.39355 9.67505 3.8457 9.54614 3.39453 9.28833V9.32056C3.39453 10.9641 4.55469 12.3176 6.10156 12.6399C5.84375 12.7043 5.52148 12.7688 5.23145 12.7688C5.00586 12.7688 4.8125 12.7366 4.58691 12.7043C5.00586 14.0579 6.2627 15.0247 7.74512 15.0569C6.58496 15.9592 5.13477 16.5071 3.55566 16.5071C3.26562 16.5071 3.00781 16.4749 2.75 16.4426C4.23242 17.4094 6.00488 17.9573 7.93848 17.9573C14.1582 17.9573 17.542 12.8333 17.542 8.35376C17.542 8.19263 17.542 8.06372 17.542 7.90259Z" fill="#D4D4D4"/>
</svg>
