<svg width="60" height="60" viewBox="0 0 60 60" fill="none" xmlns="http://www.w3.org/2000/svg">
<g clip-path="url(#clip0_1_1847)">
<mask id="mask0_1_1847" style="mask-type:luminance" maskUnits="userSpaceOnUse" x="0" y="0" width="60" height="60">
<path d="M60 0H0V60H60V0Z" fill="white"/>
</mask>
<g mask="url(#mask0_1_1847)">
<path d="M59.9999 29.7016C60 35.5761 58.2406 41.3187 54.9441 46.2032C51.6477 51.0878 46.9623 54.8948 41.4805 57.1429C35.9986 59.3911 29.9666 59.9793 24.1471 58.8332C18.3276 57.6872 12.982 54.8583 8.78637 50.7044C4.59075 46.5505 1.7335 41.2581 0.575949 35.4964C-0.581602 29.7348 0.0125422 23.7627 2.28324 18.3353C4.55393 12.908 8.39919 8.26918 13.3328 5.00552C18.2663 1.74185 24.0666 -7.86964e-05 30.0001 2.66656e-09C37.9566 2.66657e-09 45.5871 3.12926 51.2132 8.69939C56.8392 14.2695 59.9999 21.8242 59.9999 29.7016Z" fill="#00AA9C"/>
<path d="M42.8842 25.2705H41.5945C41.3392 24.3777 40.9789 23.5176 40.521 22.708L41.4338 21.8043C41.5247 21.7144 41.5969 21.6075 41.6461 21.4899C41.6953 21.3723 41.7207 21.2462 41.7207 21.1189C41.7207 20.9916 41.6953 20.8656 41.6461 20.748C41.5969 20.6304 41.5247 20.5235 41.4338 20.4335L38.1711 17.2033C38.0802 17.1133 37.9723 17.0418 37.8535 16.9931C37.7347 16.9443 37.6074 16.9192 37.4788 16.9192C37.3502 16.9192 37.2229 16.9443 37.1041 16.9931C36.9853 17.0418 36.8774 17.1133 36.7865 17.2033L35.8734 18.107C35.0557 17.6538 34.1871 17.2971 33.2855 17.0441V15.7673C33.2854 15.5102 33.1822 15.2638 32.9986 15.0821C32.815 14.9004 32.5661 14.7983 32.3065 14.7983H27.6926C27.433 14.7983 27.1841 14.9004 27.0005 15.0821C26.8169 15.2638 26.7137 15.5102 26.7136 15.7673V17.0441C25.812 17.2971 24.9434 17.6538 24.1257 18.107L23.2126 17.2033C23.1217 17.1133 23.0138 17.0418 22.895 16.9931C22.7762 16.9443 22.6489 16.9192 22.5203 16.9192C22.3917 16.9192 22.2644 16.9443 22.1456 16.9931C22.0268 17.0418 21.9189 17.1133 21.828 17.2033L18.5653 20.4335C18.3818 20.6154 18.2788 20.8619 18.2788 21.1189C18.2788 21.376 18.3818 21.6225 18.5653 21.8043L19.4785 22.708C19.0205 23.5176 18.6603 24.3777 18.405 25.2705H17.1153C16.9867 25.2705 16.8594 25.2955 16.7406 25.3442C16.6219 25.3928 16.5139 25.4642 16.423 25.5542C16.3321 25.6442 16.26 25.751 16.2108 25.8686C16.1615 25.9861 16.1362 26.1122 16.1362 26.2394V30.8078C16.1363 31.0648 16.2395 31.3113 16.4231 31.493C16.6067 31.6747 16.8557 31.7767 17.1153 31.7767H18.405C18.6603 32.6696 19.0205 33.5297 19.4785 34.3393L18.5653 35.2429C18.3818 35.4248 18.2787 35.6714 18.2787 35.9285C18.2787 36.1856 18.3818 36.4322 18.5653 36.6141L21.828 39.844C22.0116 40.0257 22.2606 40.1279 22.5203 40.1279C22.78 40.1279 23.029 40.0257 23.2126 39.844L24.1257 38.9395C24.9432 39.3933 25.8118 39.7501 26.7136 40.0027V41.2792C26.7136 41.5363 26.8167 41.7829 27.0003 41.9648C27.1839 42.1466 27.4329 42.2488 27.6926 42.2489H32.3065C32.5662 42.2488 32.8152 42.1466 32.9988 41.9648C33.1824 41.7829 33.2855 41.5363 33.2855 41.2792V40.0027C34.1873 39.7501 35.0559 39.3933 35.8734 38.9395L36.7865 39.844C36.9702 40.0257 37.2192 40.1277 37.4788 40.1277C37.7384 40.1277 37.9874 40.0257 38.1711 39.844L41.4333 36.6141C41.5243 36.5241 41.5965 36.4172 41.6457 36.2996C41.695 36.182 41.7203 36.0559 41.7203 35.9285C41.7203 35.8012 41.695 35.6751 41.6457 35.5575C41.5965 35.4398 41.5243 35.333 41.4333 35.2429L40.521 34.3397C40.9789 33.5301 41.3392 32.67 41.5945 31.7771H42.8842C43.1438 31.7771 43.3928 31.6751 43.5764 31.4934C43.76 31.3117 43.8632 31.0652 43.8633 30.8082V26.2394C43.8633 26.1122 43.8379 25.9861 43.7887 25.8686C43.7395 25.751 43.6674 25.6442 43.5765 25.5542C43.4856 25.4642 43.3776 25.3928 43.2589 25.3442C43.1401 25.2955 43.0128 25.2705 42.8842 25.2705ZM29.9999 33.2466C29.0564 33.2466 28.1341 32.9696 27.3495 32.4506C26.565 31.9316 25.9536 31.194 25.5925 30.3309C25.2314 29.4679 25.1369 28.5182 25.321 27.602C25.5051 26.6858 25.9594 25.8442 26.6266 25.1836C27.2938 24.5231 28.1438 24.0733 29.0692 23.891C29.9946 23.7088 30.9539 23.8023 31.8256 24.1598C32.6973 24.5173 33.4424 25.1227 33.9666 25.8994C34.4908 26.6761 34.7706 27.5893 34.7706 28.5234C34.7706 29.7761 34.2679 30.9775 33.3733 31.8632C32.4786 32.749 31.2652 33.2466 29.9999 33.2466Z" fill="white"/>
<path d="M42.8842 24.6733H41.5945L42.176 25.111C41.8993 24.1706 41.5188 23.2632 41.0415 22.4052L40.9474 23.1282C41.4928 22.5883 42.2938 22.0169 42.3211 21.1845C42.3468 20.3978 41.7886 19.9386 41.2822 19.4372C40.6587 18.8199 40.0355 18.2029 39.4125 17.5862C38.9841 17.1616 38.5167 16.548 37.9094 16.3821C36.817 16.0829 36.1249 17.0128 35.4477 17.6837L36.1784 17.5901C35.3118 17.1176 34.3953 16.7409 33.4454 16.4668L33.8876 17.0426C33.8876 16.2906 34.0383 15.367 33.5069 14.7515C32.9756 14.1359 32.2208 14.1996 31.4882 14.1996H28.8468C28.2335 14.1996 27.4466 14.0897 26.8964 14.4132C25.9383 14.9771 26.1127 16.1044 26.1127 17.0426C26.2601 16.8508 26.4074 16.6589 26.5548 16.4668C25.6049 16.7408 24.6884 17.1175 23.8218 17.5901L24.5525 17.6837C24.0067 17.1433 23.4296 16.3503 22.5892 16.3232C21.7942 16.2977 21.3304 16.8504 20.824 17.3518C20.2011 17.9688 19.5779 18.5858 18.9544 19.2029C18.5259 19.6274 17.9062 20.0898 17.7382 20.6911C17.436 21.7726 18.3752 22.4578 19.0528 23.1282C19.0215 22.8871 18.99 22.6461 18.9584 22.4052C18.4811 23.2632 18.1008 24.1706 17.8242 25.111L18.4054 24.6733C17.6462 24.6733 16.7129 24.5245 16.0912 25.0502C15.4694 25.5758 15.5337 26.3235 15.5337 27.0489V29.6667C15.5337 30.2739 15.4228 31.053 15.75 31.5978C16.3195 32.5464 17.4581 32.3737 18.4054 32.3737L17.8242 31.936C18.1008 32.8764 18.4811 33.7838 18.9584 34.6418C18.9903 34.4006 19.0218 34.1595 19.0528 33.9184C18.5074 34.4587 17.706 35.0301 17.6787 35.8626C17.653 36.6492 18.2112 37.1084 18.7176 37.6098L20.5877 39.4608C21.0161 39.885 21.4835 40.4986 22.0904 40.6649C23.1832 40.9642 23.8749 40.0342 24.5525 39.3634L23.8218 39.4569C24.6884 39.9294 25.6049 40.306 26.5548 40.5798L26.1127 40.0044C26.1127 40.756 25.9624 41.68 26.4933 42.2956C27.0242 42.9111 27.7794 42.8475 28.5121 42.8475H31.1566C31.7699 42.8475 32.5568 42.9573 33.107 42.6334C34.0652 42.0695 33.8903 40.9427 33.8903 40.0044L33.4483 40.5798C34.3981 40.306 35.3146 39.9294 36.1812 39.4569L35.4509 39.3634C35.9963 39.9037 36.5735 40.6968 37.4143 40.7238C38.2088 40.7493 38.6726 40.1966 39.179 39.6952L41.0487 37.8441C41.4775 37.4196 42.0973 36.9572 42.2649 36.356C42.5671 35.2744 41.6278 34.5892 40.9506 33.9184L41.0447 34.6418C41.5221 33.7838 41.9025 32.8764 42.1792 31.936L41.5977 32.3737C42.4979 32.3737 43.5935 32.5468 44.1831 31.7008C44.6075 31.092 44.4693 30.1888 44.4693 29.4884V26.6959C44.4831 26.4467 44.4729 26.1967 44.4388 25.9494C44.365 25.5939 44.1711 25.2739 43.8892 25.0419C43.6072 24.81 43.2539 24.68 42.8874 24.6733C42.1129 24.6216 42.1161 25.8157 42.8874 25.8671C43.4235 25.9029 43.2636 26.7361 43.2636 27.0878V29.4884C43.31 29.9435 43.3077 30.4022 43.2567 30.8568C43.1305 31.3964 42.0145 31.18 41.5977 31.18C41.4663 31.182 41.3391 31.2256 41.2345 31.3043C41.1299 31.3831 41.0536 31.4929 41.0165 31.6177C40.7702 32.4588 40.4305 33.2703 40.0037 34.0373C39.9389 34.1519 39.9131 34.2842 39.93 34.4144C39.9469 34.5447 40.0058 34.6661 40.0978 34.7607L40.8682 35.5235C41.107 35.7599 41.197 35.9612 40.9619 36.2398C40.4892 36.7968 39.8996 37.2914 39.3796 37.8063C38.8796 38.355 38.3515 38.8779 37.7973 39.3729C37.5159 39.5989 37.3126 39.5166 37.0738 39.2802L36.3002 38.5178C36.2047 38.4265 36.0821 38.3681 35.9505 38.3513C35.8189 38.3345 35.6853 38.3601 35.5695 38.4243C34.7948 38.847 33.9751 39.1835 33.1255 39.4274C32.9995 39.4641 32.8886 39.5397 32.809 39.6432C32.7295 39.7467 32.6855 39.8727 32.6834 40.0028C32.6834 40.468 32.9189 41.5865 32.2626 41.6521C31.5251 41.7258 30.7406 41.6521 30.0003 41.6521C29.26 41.6521 28.4871 41.717 27.7496 41.6521C27.0769 41.5925 27.3164 40.4779 27.3164 40.0028C27.3144 39.8727 27.2704 39.7467 27.1909 39.6432C27.1113 39.5396 27.0004 39.464 26.8743 39.4274C26.0247 39.1834 25.2051 38.847 24.4303 38.4243C24.3145 38.3602 24.1809 38.3347 24.0494 38.3515C23.9178 38.3683 23.7952 38.4266 23.6997 38.5178L22.9296 39.2806C22.6885 39.517 22.4875 39.6061 22.2062 39.3733C21.6435 38.9054 21.1439 38.3216 20.6239 37.8067C20.0698 37.3116 19.5416 36.7888 19.0416 36.2402C18.8133 35.9616 18.8969 35.7599 19.1352 35.5239L19.9057 34.7611C19.9979 34.6667 20.0569 34.5452 20.0739 34.4149C20.0909 34.2846 20.0651 34.1523 20.0001 34.0377C19.5732 33.2707 19.2335 32.4592 18.9873 31.618C18.9501 31.4933 18.8737 31.3835 18.7691 31.3047C18.6644 31.226 18.5371 31.1824 18.4057 31.1803C17.9359 31.1803 16.8062 31.4135 16.7399 30.7637C16.6655 30.0336 16.7399 29.2565 16.7399 28.5239C16.7399 27.7914 16.6744 27.0258 16.7399 26.2956C16.8002 25.6295 17.9259 25.8667 18.4057 25.8667C18.5372 25.8647 18.6645 25.8211 18.7691 25.7424C18.8737 25.6636 18.9502 25.5538 18.9873 25.429C19.2334 24.5878 19.5731 23.7762 20.0001 23.0093C20.0649 22.8946 20.0906 22.7624 20.0736 22.6321C20.0566 22.5018 19.9978 22.3805 19.9057 22.2859L19.1352 21.5231C18.8965 21.2867 18.8065 21.0854 19.0416 20.8068C19.5142 20.2498 20.1038 19.7552 20.6239 19.2403C21.1237 18.6915 21.6519 18.1686 22.2062 17.6737C22.4875 17.4477 22.6913 17.5301 22.9296 17.7664L23.6997 18.5292C23.7952 18.6204 23.9178 18.6787 24.0494 18.6955C24.181 18.7123 24.3146 18.6866 24.4303 18.6223C25.2051 18.1998 26.0248 17.8635 26.8743 17.6196C27.0003 17.5829 27.1112 17.5072 27.1907 17.4037C27.2703 17.3002 27.3143 17.1743 27.3164 17.0442C27.3164 16.5791 27.0809 15.4605 27.7376 15.3949C28.4747 15.3213 29.2596 15.3949 29.9995 15.3949C30.7394 15.3949 31.5127 15.33 32.2502 15.3949C32.9234 15.4542 32.6834 16.5691 32.6834 17.0442C32.6855 17.1743 32.7295 17.3003 32.809 17.4038C32.8886 17.5073 32.9995 17.5829 33.1255 17.6196C33.9751 17.8634 34.7948 18.1997 35.5695 18.6223C35.6853 18.6865 35.8188 18.7122 35.9504 18.6954C36.082 18.6786 36.2046 18.6204 36.3002 18.5292L37.0706 17.7664C37.3094 17.5301 37.5127 17.4409 37.7941 17.6737C38.3567 18.1416 38.8567 18.7254 39.3764 19.2403C39.9308 19.7351 40.4589 20.258 40.9587 20.8068C41.1869 21.0854 41.1037 21.2867 40.865 21.5231L40.0946 22.2859C40.0024 22.3804 39.9435 22.5019 39.9266 22.6322C39.9097 22.7625 39.9356 22.8947 40.0005 23.0093C40.4274 23.7763 40.767 24.5878 41.0133 25.429C41.0504 25.5537 41.1268 25.6635 41.2313 25.7422C41.3359 25.821 41.4631 25.8646 41.5945 25.8667H42.8842C43.0441 25.8667 43.1974 25.8038 43.3105 25.6918C43.4235 25.5799 43.487 25.4281 43.487 25.2698C43.487 25.1115 43.4235 24.9597 43.3105 24.8478C43.1974 24.7358 43.0441 24.6733 42.8842 24.6733Z" fill="#071546"/>
<path d="M29.9999 32.6495C29.1436 32.6489 28.3083 32.3872 27.6076 31.9C26.9068 31.4127 26.3747 30.7236 26.0836 29.9263C25.7925 29.129 25.7565 28.2623 25.9805 27.444C26.2045 26.6258 26.6778 25.8957 27.3357 25.3532C27.9937 24.8106 28.8046 24.4819 29.6579 24.4118C30.5113 24.3417 31.3657 24.5335 32.1051 24.9612C32.8444 25.3889 33.4327 26.0317 33.79 26.8022C34.1473 27.5726 34.2561 28.4334 34.1018 29.2673C33.918 30.2134 33.409 31.0674 32.6612 31.684C31.9134 32.3005 30.9731 32.6417 29.9999 32.6495C29.8401 32.6495 29.6867 32.7124 29.5737 32.8243C29.4606 32.9362 29.3971 33.0881 29.3971 33.2464C29.3971 33.4047 29.4606 33.5565 29.5737 33.6684C29.6867 33.7803 29.8401 33.8432 29.9999 33.8432C31.1065 33.8437 32.1862 33.506 33.0916 32.8762C33.9971 32.2465 34.6841 31.3554 35.059 30.3247C35.4338 29.2939 35.4782 28.1737 35.1861 27.1171C34.8939 26.0604 34.2795 25.1188 33.4267 24.4207C32.5738 23.7227 31.5242 23.3023 30.421 23.2169C29.3179 23.1315 28.215 23.3853 27.2629 23.9437C26.3109 24.502 25.5561 25.3377 25.1016 26.3365C24.6472 27.3354 24.5152 28.4488 24.7237 29.5247C24.9718 30.7334 25.6308 31.8215 26.5909 32.6074C27.551 33.3934 28.7542 33.8291 29.9999 33.8432C30.1598 33.8432 30.3132 33.7811 30.4262 33.6692C30.5393 33.5573 30.6028 33.4055 30.6028 33.2472C30.6028 33.0889 30.5393 32.937 30.4262 32.8251C30.3132 32.7132 30.1598 32.6495 29.9999 32.6495Z" fill="#071546"/>
<path d="M30.0003 35.1968H11.4604V59.4033H30.0003V35.1968Z" fill="white"/>
<path d="M29.9997 58.8062H11.4598L12.0626 59.403V35.197L11.4598 35.7939H29.9997L29.3968 35.197V59.403C29.3968 59.5613 29.4603 59.7132 29.5734 59.8251C29.6864 59.937 29.8398 59.9999 29.9997 59.9999C30.1596 59.9999 30.3129 59.937 30.426 59.8251C30.539 59.7132 30.6025 59.5613 30.6025 59.403V35.197C30.6003 35.0394 30.5361 34.8888 30.4236 34.7773C30.311 34.6659 30.1589 34.6023 29.9997 34.6001H11.4598C11.3006 34.6024 11.1486 34.666 11.036 34.7775C10.9235 34.8889 10.8592 35.0394 10.8569 35.197V59.403C10.8592 59.5606 10.9235 59.7111 11.036 59.8226C11.1486 59.934 11.3006 59.9976 11.4598 59.9999H29.9997C30.1596 59.9999 30.3129 59.937 30.426 59.8251C30.539 59.7132 30.6025 59.5613 30.6025 59.403C30.6025 59.2447 30.539 59.0929 30.426 58.981C30.3129 58.8691 30.1596 58.8062 29.9997 58.8062Z" fill="#071546"/>
<path d="M48.5399 35.1968H30V59.4033H48.5399V35.1968Z" fill="white"/>
<path d="M48.5402 58.8062H30.0003L30.6032 59.403V35.197L30.0003 35.7939H48.5402L47.9373 35.197V59.403C47.9373 59.5613 48.0009 59.7132 48.1139 59.8251C48.227 59.937 48.3803 59.9999 48.5402 59.9999C48.7001 59.9999 48.8534 59.937 48.9665 59.8251C49.0795 59.7132 49.1431 59.5613 49.1431 59.403V35.197C49.1409 35.0394 49.0767 34.8888 48.9641 34.7773C48.8515 34.6659 48.6994 34.6023 48.5402 34.6001H30.0003C29.8411 34.6024 29.6891 34.666 29.5766 34.7775C29.464 34.8889 29.3997 35.0394 29.3975 35.197V59.403C29.3997 59.5606 29.464 59.7111 29.5766 59.8226C29.6891 59.934 29.8411 59.9976 30.0003 59.9999H48.5402C48.7001 59.9999 48.8534 59.937 48.9665 59.8251C49.0795 59.7132 49.1431 59.5613 49.1431 59.403C49.1431 59.2447 49.0795 59.0929 48.9665 58.981C48.8534 58.8691 48.7001 58.8062 48.5402 58.8062Z" fill="#071546"/>
<path d="M26.0135 44.2474H7.47363L11.4605 35.1973H30.0004L26.0135 44.2474Z" fill="white"/>
<path d="M26.0133 43.6506H7.47341L7.99589 44.5487C9.15766 41.9105 10.3199 39.2722 11.4824 36.6338L11.9828 35.4986L11.4603 35.7942H30.0002L29.4797 34.8966L25.9932 42.8102L25.4932 43.9454C25.1862 44.6426 26.2243 45.251 26.5342 44.5479L30.0211 36.633L30.5211 35.4978C30.572 35.4066 30.5984 35.3039 30.5975 35.1996C30.5965 35.0953 30.5684 34.9931 30.5159 34.9027C30.4633 34.8124 30.3881 34.737 30.2974 34.6839C30.2068 34.6308 30.1039 34.6018 29.9986 34.5997H11.4603C11.3545 34.5981 11.2501 34.6247 11.1582 34.6767C11.0663 34.7288 10.9902 34.8043 10.9378 34.8954L7.45092 42.8102C7.28453 43.1887 7.11787 43.5671 6.95094 43.9454C6.90004 44.0365 6.87372 44.139 6.87453 44.2431C6.87534 44.3472 6.90328 44.4494 6.9556 44.5397C7.00793 44.6299 7.08288 44.7053 7.17324 44.7586C7.26359 44.8118 7.36629 44.8411 7.4714 44.8435H26.0113C26.1712 44.8435 26.3245 44.7806 26.4376 44.6687C26.5506 44.5568 26.6141 44.4049 26.6141 44.2466C26.6141 44.0883 26.5506 43.9365 26.4376 43.8246C26.3245 43.7127 26.1712 43.6498 26.0113 43.6498" fill="#071546"/>
<path d="M33.9865 44.2476H52.5264L48.5399 35.1968H30L33.9865 44.2476Z" fill="white"/>
<path d="M33.9866 44.8445H52.5265C52.6318 44.8423 52.7347 44.8133 52.8254 44.7602C52.916 44.7072 52.9912 44.6318 53.0438 44.5414C53.0963 44.4511 53.1244 44.3488 53.1254 44.2446C53.1263 44.1403 53.0999 44.0376 53.049 43.9464L49.56 36.0308L49.0601 34.8967C49.0079 34.8059 48.9321 34.7305 48.8406 34.6786C48.7491 34.6266 48.6451 34.5998 48.5396 34.6011H29.9997C29.8946 34.6035 29.7919 34.6328 29.7016 34.686C29.6112 34.7392 29.5362 34.8146 29.4839 34.9049C29.4316 34.9952 29.4037 35.0973 29.4029 35.2014C29.402 35.3055 29.4284 35.4081 29.4793 35.4992L32.9662 43.412C33.1326 43.7905 33.2992 44.1689 33.4662 44.5472C33.7756 45.2495 34.8146 44.6427 34.5071 43.9448C33.3448 41.3066 32.1826 38.6684 31.0206 36.03L30.5202 34.8967L29.9997 35.7948H48.54L48.0195 35.4992C49.1813 38.1378 50.3435 40.7761 51.5061 43.414C51.6727 43.7925 51.8394 44.1709 52.006 44.5492L52.5285 43.6511H33.9886C33.8287 43.6511 33.6754 43.714 33.5623 43.8259C33.4493 43.9379 33.3858 44.0897 33.3858 44.248C33.3858 44.4063 33.4493 44.5581 33.5623 44.67C33.6754 44.782 33.8287 44.8449 33.9886 44.8449" fill="#071546"/>
</g>
</g>
<defs>
<clipPath id="clip0_1_1847">
<rect width="60" height="60" fill="white"/>
</clipPath>
</defs>
</svg>
