<svg width="60" height="60" viewBox="0 0 60 60" fill="none" xmlns="http://www.w3.org/2000/svg">
<g clip-path="url(#clip0_1_1805)">
<mask id="mask0_1_1805" style="mask-type:luminance" maskUnits="userSpaceOnUse" x="0" y="0" width="60" height="60">
<path d="M60 0H0V60H60V0Z" fill="white"/>
</mask>
<g mask="url(#mask0_1_1805)">
<mask id="mask1_1_1805" style="mask-type:luminance" maskUnits="userSpaceOnUse" x="0" y="0" width="60" height="60">
<path d="M60 0H0V60H60V0Z" fill="white"/>
</mask>
<g mask="url(#mask1_1_1805)">
<path d="M60.0006 29.699C60.0006 35.5729 58.2411 41.3149 54.9447 46.1989C51.6483 51.0829 46.963 54.8895 41.4812 57.1373C35.9995 59.3852 29.9675 59.9733 24.1481 58.8274C18.3287 57.6814 12.9833 54.8529 8.78773 50.6994C4.59218 46.5459 1.73498 41.254 0.577427 35.493C-0.580122 29.732 0.0139775 23.7605 2.28459 18.3337C4.55521 12.9069 8.40036 8.26855 13.3338 5.00519C18.2672 1.74182 24.0674 0 30.0008 0C37.9572 0 45.5878 3.12899 51.2139 8.69864C56.8399 14.2683 60.0006 21.8223 60.0006 29.699Z" fill="#00AA9C"/>
<path d="M50.1901 46.133H9.8095C9.19055 46.1312 8.59745 45.887 8.15978 45.4537C7.72211 45.0204 7.47544 44.4333 7.47363 43.8206V17.1084C7.47544 16.4956 7.72211 15.9085 8.15978 15.4752C8.59745 15.0419 9.19055 14.7977 9.8095 14.7959H50.1901C50.8092 14.7975 51.4025 15.0416 51.8403 15.4749C52.2782 15.9082 52.525 16.4955 52.5268 17.1084V43.8198C52.525 44.4325 52.2783 45.0197 51.8406 45.4529C51.403 45.8862 50.8099 46.1304 50.1909 46.1322" fill="white"/>
<path d="M50.1905 45.5364H10.295C9.62339 45.5364 8.98597 45.5002 8.49805 44.9396C8.01014 44.379 8.07686 43.7062 8.07686 43.0298V21.6444C8.07686 20.1364 8.03667 18.6229 8.07686 17.1154C8.1054 16.0089 9.00124 15.3954 10.037 15.3954H46.3141C47.5873 15.3954 48.8626 15.3747 50.1358 15.3954C50.3774 15.3945 50.6167 15.4423 50.8391 15.5357C51.0615 15.6292 51.2624 15.7664 51.4297 15.939C51.5969 16.1116 51.727 16.3161 51.812 16.54C51.897 16.7639 51.9352 17.0026 51.9243 17.2415C51.9283 17.8729 51.9243 18.5044 51.9243 19.1358V43.4659C51.9243 43.5852 51.9275 43.7006 51.9243 43.818C51.9176 44.2713 51.733 44.7043 51.4095 45.0253C51.0861 45.3463 50.6492 45.5302 50.1913 45.538C49.4172 45.5603 49.414 46.7539 50.1913 46.7316C50.5886 46.7226 50.9802 46.6357 51.3434 46.476C51.7067 46.3164 52.0343 46.087 52.3076 45.8013C52.5808 45.5156 52.7942 45.1791 52.9353 44.8113C53.0765 44.4435 53.1426 44.0517 53.13 43.6584C53.1324 42.982 53.13 42.3057 53.13 41.6293V23.0131C53.13 21.0941 53.1389 19.1752 53.13 17.2562C53.1408 16.8642 53.0732 16.4739 52.9311 16.1079C52.7891 15.7418 52.5753 15.4071 52.3021 15.1231C52.0289 14.8391 51.7017 14.6114 51.3394 14.453C50.977 14.2946 50.5865 14.2086 50.1905 14.2001C49.8919 14.1926 49.592 14.2001 49.2934 14.2001H10.0205C9.37498 14.1721 8.73724 14.3482 8.19953 14.7028C7.66182 15.0575 7.25204 15.5723 7.0295 16.1728C6.87035 16.7866 6.81682 17.4226 6.87115 18.054V42.9733C6.80387 43.6879 6.90442 44.4083 7.16494 45.0781C7.43397 45.6021 7.85124 46.0374 8.36585 46.3307C8.88046 46.624 9.47018 46.7628 10.0631 46.73H50.1905C50.3504 46.73 50.5037 46.6672 50.6168 46.5552C50.7298 46.4433 50.7933 46.2915 50.7933 46.1332C50.7933 45.9749 50.7298 45.8231 50.6168 45.7112C50.5037 45.5993 50.3504 45.5364 50.1905 45.5364Z" fill="#071546"/>
<path d="M31.3386 46.1333H27.9932V56.7844H31.3386V46.1333Z" fill="white"/>
<path d="M31.338 56.1877H27.9925L28.5954 56.7845V46.1334L27.9925 46.7302H31.338L30.7351 46.1334V56.7845C30.7351 56.9428 30.7986 57.0946 30.9117 57.2065C31.0247 57.3184 31.1781 57.3813 31.338 57.3813C31.4979 57.3813 31.6512 57.3184 31.7642 57.2065C31.8773 57.0946 31.9408 56.9428 31.9408 56.7845V46.1334C31.9385 45.9758 31.8743 45.8253 31.7617 45.7139C31.6492 45.6024 31.4971 45.5388 31.338 45.5366H27.9925C27.8333 45.5388 27.6813 45.6024 27.5688 45.7139C27.4562 45.8253 27.3919 45.9758 27.3896 46.1334V56.7845C27.3919 56.9421 27.4562 57.0926 27.5688 57.204C27.6813 57.3155 27.8333 57.3791 27.9925 57.3813H31.338C31.4979 57.3813 31.6512 57.3184 31.7642 57.2065C31.8773 57.0946 31.9408 56.9428 31.9408 56.7845C31.9408 56.6262 31.8773 56.4744 31.7642 56.3625C31.6512 56.2506 31.4979 56.1877 31.338 56.1877Z" fill="#071546"/>
<path d="M19.9023 58.5708V56.9136C19.9023 56.805 19.924 56.6974 19.966 56.597C20.008 56.4966 20.0696 56.4054 20.1472 56.3286C20.2248 56.2517 20.317 56.1908 20.4184 56.1493C20.5199 56.1077 20.6285 56.0864 20.7383 56.0864H38.5921C38.7019 56.0864 38.8106 56.1077 38.912 56.1493C39.0134 56.1908 39.1056 56.2517 39.1832 56.3286C39.2609 56.4054 39.3224 56.4966 39.3645 56.597C39.4065 56.6974 39.4281 56.805 39.4281 56.9136V58.5708C39.4281 58.7902 39.34 59.0007 39.1833 59.1559C39.0265 59.3111 38.8138 59.3983 38.5921 59.3983H20.7383C20.6285 59.3983 20.5198 59.3769 20.4184 59.3353C20.317 59.2938 20.2248 59.2328 20.1472 59.1559C20.0696 59.0791 20.008 58.9879 19.966 58.8875C19.924 58.7871 19.9023 58.6794 19.9023 58.5708Z" fill="white"/>
<path d="M20.5057 58.5709V57.4966C20.5057 57.2213 20.3972 56.7653 20.7392 56.683C20.9404 56.6613 21.1433 56.6613 21.3445 56.683H37.8628C38.1033 56.6582 38.3457 56.6582 38.5862 56.683C38.8884 56.7514 38.8273 57.0243 38.8273 57.2722C38.8529 57.683 38.8529 58.0949 38.8273 58.5056C38.7811 58.8637 38.5175 58.8024 38.2349 58.8024H23.6996C22.7403 58.8538 21.7789 58.8538 20.8196 58.8024C20.6677 58.7857 20.5222 58.7726 20.5057 58.5709C20.4438 57.8105 19.2373 57.8046 19.3 58.5717C19.3093 58.7717 19.3591 58.9678 19.4463 59.1484C19.5335 59.329 19.6564 59.4905 19.8077 59.6233C19.9591 59.7561 20.1358 59.8575 20.3274 59.9215C20.519 59.9856 20.7216 60.0109 20.9233 59.9961C21.3597 60 21.7966 59.9961 22.2331 59.9961H37.9673C38.2478 60.0096 38.529 60.0024 38.8084 59.9746C40.1862 59.7669 40.0314 58.3393 40.0314 57.3152C40.0639 57.0644 40.0432 56.8097 39.9706 56.5673C39.898 56.3249 39.7751 56.1002 39.6099 55.9075C39.3226 55.638 38.9414 55.4887 38.5456 55.4905C38.21 55.4782 37.8716 55.4905 37.536 55.4905H21.7207C21.4032 55.4905 21.0828 55.4778 20.7653 55.4905C20.5383 55.491 20.3143 55.543 20.1107 55.6424C19.9071 55.7419 19.7291 55.8862 19.5906 56.0643C19.3381 56.4808 19.2357 56.9697 19.3 57.4513V58.5717C19.3 58.73 19.3635 58.8818 19.4766 58.9937C19.5896 59.1056 19.743 59.1685 19.9028 59.1685C20.0627 59.1685 20.2161 59.1056 20.3291 58.9937C20.4422 58.8818 20.5057 58.7292 20.5057 58.5709Z" fill="#071546"/>
<path d="M7.47363 45.3649V43.5891C7.47363 43.3854 7.55539 43.19 7.70094 43.0459C7.84648 42.9018 8.04388 42.8208 8.24971 42.8208H51.7507C51.9565 42.8208 52.1539 42.9018 52.2995 43.0459C52.445 43.19 52.5268 43.3854 52.5268 43.5891V45.3649C52.5268 45.5686 52.445 45.764 52.2995 45.9081C52.1539 46.0522 51.9565 46.1332 51.7507 46.1332H8.24971C8.04388 46.1332 7.84648 46.0522 7.70094 45.9081C7.55539 45.764 7.47363 45.5686 7.47363 45.3649Z" fill="white"/>
<path d="M8.07661 45.3651V44.1396C8.07661 43.9093 7.97774 43.4975 8.25184 43.4179C8.37916 43.4024 8.50793 43.4024 8.63526 43.4179H49.9792C50.5541 43.3653 51.1326 43.3653 51.7074 43.4179C52.1174 43.4995 51.9245 44.4898 51.9245 44.8148C51.9245 45.1479 52.0205 45.5028 51.6363 45.5366C50.9836 45.5935 50.2996 45.5366 49.6453 45.5366H8.49338C8.33945 45.5366 8.09429 45.5799 8.07661 45.3651C8.01472 44.6048 6.8082 44.598 6.87089 45.3651C6.87783 45.5514 6.92182 45.7346 7.00034 45.9041C7.07886 46.0736 7.19036 46.2261 7.32848 46.3529C7.4666 46.4797 7.62862 46.5783 7.80527 46.643C7.98191 46.7078 8.16972 46.7374 8.35794 46.7302C8.59908 46.7346 8.84223 46.7302 9.08418 46.7302H51.2038C51.3779 46.7302 51.5535 46.7374 51.7263 46.7302C51.9302 46.7287 52.1315 46.6842 52.3168 46.5999C52.5021 46.5155 52.6671 46.3931 52.801 46.2408C53.1591 45.8246 53.1274 45.3217 53.1274 44.8148C53.1274 44.3883 53.1527 43.953 53.1221 43.5269C53.1004 43.1784 52.9468 42.8508 52.692 42.6094C52.4372 42.368 52.0998 42.2305 51.7472 42.2243C51.6162 42.2179 51.4836 42.2243 51.3525 42.2243H9.29317C8.56974 42.2243 7.72574 42.1021 7.19724 42.7136C6.64221 43.3578 6.87089 44.5809 6.87089 45.3651C6.87089 45.5234 6.93441 45.6752 7.04746 45.7871C7.16052 45.899 7.31386 45.9619 7.47375 45.9619C7.63364 45.9619 7.78698 45.899 7.90003 45.7871C8.01309 45.6752 8.07661 45.5234 8.07661 45.3651Z" fill="#071546"/>
<path d="M16.0237 37.0976C16.0237 37.6361 15.8624 38.1626 15.5602 38.6104C15.2579 39.0582 14.8283 39.4072 14.3257 39.6134C13.8231 39.8195 13.2701 39.8734 12.7365 39.7683C12.2029 39.6632 11.7128 39.4039 11.3281 39.0231C10.9434 38.6422 10.6815 38.157 10.5753 37.6288C10.4692 37.1006 10.5237 36.5531 10.7318 36.0555C10.94 35.5579 11.2926 35.1326 11.7449 34.8334C12.1973 34.5342 12.7291 34.3745 13.2731 34.3745C14.0026 34.3745 14.7023 34.6614 15.2181 35.1721C15.7339 35.6828 16.0237 36.3754 16.0237 37.0976Z" fill="white"/>
<path d="M15.4203 37.0972C15.4197 37.5331 15.2838 37.9582 15.031 38.315C14.7782 38.6719 14.4207 38.9431 14.0069 39.0921C13.5932 39.2411 13.1432 39.2606 12.7178 39.1479C12.2925 39.0353 11.9125 38.7959 11.6292 38.4623C11.3459 38.1287 11.173 37.7169 11.134 37.2828C11.095 36.8486 11.1917 36.4131 11.411 36.0352C11.6304 35.6573 11.9617 35.3553 12.3603 35.17C12.7588 34.9848 13.2052 34.9253 13.639 34.9996C14.1365 35.0887 14.5868 35.3471 14.912 35.7302C15.2373 36.1132 15.4171 36.5968 15.4203 37.0972C15.4203 37.2555 15.4838 37.4073 15.5969 37.5192C15.7099 37.6311 15.8633 37.694 16.0231 37.694C16.183 37.694 16.3364 37.6311 16.4494 37.5192C16.5625 37.4073 16.626 37.2555 16.626 37.0972C16.6188 36.4178 16.4043 35.7564 16.0107 35.1998C15.6171 34.6432 15.0627 34.2174 14.4203 33.9783C13.7749 33.747 13.0734 33.7171 12.4102 33.8925C11.747 34.068 11.1541 34.4403 10.7112 34.9594C10.3641 35.3677 10.1216 35.8529 10.0042 36.3737C9.88687 36.8945 9.89814 37.4357 10.0371 37.9513C10.176 38.4669 10.4385 38.9418 10.8023 39.3355C11.1661 39.7293 11.6205 40.0304 12.1269 40.2133C12.6332 40.3963 13.1767 40.4556 13.7112 40.3862C14.2457 40.3169 14.7554 40.121 15.1971 39.8151C15.6388 39.5092 15.9994 39.1024 16.2485 38.6291C16.4975 38.1558 16.6275 37.6301 16.6276 37.0964C16.6276 36.9381 16.5641 36.7863 16.451 36.6744C16.338 36.5625 16.1846 36.4996 16.0247 36.4996C15.8649 36.4996 15.7115 36.5625 15.5985 36.6744C15.4854 36.7863 15.4219 36.9381 15.4219 37.0964" fill="#071546"/>
<path d="M17.5423 24.2633L14.137 27.6349L13.6523 28.1143C13.5392 28.2262 13.4756 28.378 13.4756 28.5363C13.4756 28.6946 13.539 28.8464 13.6521 28.9584C13.7651 29.0703 13.9185 29.1333 14.0784 29.1333C14.2383 29.1333 14.3916 29.0705 14.5047 28.9586L17.9101 25.587L18.3948 25.1071C18.4523 25.0521 18.4983 24.9862 18.5299 24.9134C18.5615 24.8406 18.5781 24.7623 18.5788 24.6831C18.5795 24.6038 18.5642 24.5252 18.5339 24.4519C18.5036 24.3785 18.4588 24.3119 18.4022 24.2559C18.3456 24.1998 18.2783 24.1555 18.2042 24.1255C18.1301 24.0955 18.0508 24.0804 17.9707 24.0811C17.8907 24.0818 17.8116 24.0982 17.738 24.1295C17.6645 24.1608 17.5979 24.2063 17.5423 24.2633Z" fill="#071546"/>
<path d="M18.396 28.1143L14.9906 24.7427L14.5059 24.2633C14.4499 24.2079 14.3835 24.1639 14.3103 24.1339C14.2372 24.1039 14.1588 24.0884 14.0796 24.0884C14.0005 24.0884 13.9221 24.1038 13.8489 24.1338C13.7757 24.1637 13.7093 24.2077 13.6533 24.2631C13.5973 24.3185 13.5528 24.3843 13.5225 24.4567C13.4922 24.5291 13.4766 24.6067 13.4766 24.6851C13.4766 24.7635 13.4921 24.8411 13.5224 24.9135C13.5527 24.9859 13.5971 25.0518 13.6531 25.1072L17.0588 28.4784L17.5435 28.9582C17.6572 29.0669 17.8095 29.1271 17.9676 29.1257C18.1256 29.1244 18.2768 29.0616 18.3886 28.951C18.5004 28.8403 18.5638 28.6906 18.5652 28.5341C18.5665 28.3776 18.5058 28.2269 18.396 28.1143Z" fill="#071546"/>
<path d="M24.6292 18.7398L21.2239 22.1114L20.7392 22.5909C20.6832 22.6463 20.6388 22.7121 20.6085 22.7845C20.5781 22.8569 20.5625 22.9345 20.5625 23.0129C20.5625 23.0913 20.5781 23.1689 20.6084 23.2413C20.6386 23.3137 20.683 23.3795 20.739 23.435C20.795 23.4904 20.8614 23.5344 20.9346 23.5644C21.0077 23.5944 21.0861 23.6099 21.1653 23.6099C21.2445 23.6099 21.3229 23.5945 21.396 23.5645C21.4692 23.5345 21.5356 23.4906 21.5916 23.4352L24.997 20.0636L25.4817 19.5837C25.5915 19.4712 25.6523 19.3204 25.6509 19.1639C25.6495 19.0075 25.5861 18.8578 25.4743 18.7471C25.3626 18.6365 25.2114 18.5737 25.0533 18.5723C24.8952 18.571 24.7429 18.6311 24.6292 18.7398Z" fill="#071546"/>
<path d="M25.4819 22.5933L22.0765 19.2217L21.5918 18.7442C21.4788 18.6322 21.3255 18.5693 21.1656 18.5693C21.0057 18.5693 20.8523 18.6321 20.7392 18.744C20.6261 18.8559 20.5625 19.0077 20.5625 19.166C20.5625 19.3243 20.6259 19.4761 20.739 19.5881L24.1467 22.9577L24.6314 23.4375C24.7445 23.5495 24.8979 23.6123 25.0578 23.6123C25.2177 23.6122 25.371 23.5493 25.4841 23.4373C25.5971 23.3254 25.6606 23.1736 25.6606 23.0153C25.6605 22.857 25.597 22.7052 25.4839 22.5933" fill="#071546"/>
<path d="M38.2517 34.75L34.846 38.1212L34.3613 38.6011C34.3053 38.6565 34.2608 38.7223 34.2305 38.7947C34.2002 38.8671 34.1846 38.9447 34.1846 39.0231C34.1846 39.1015 34.2001 39.1791 34.2304 39.2515C34.2607 39.3239 34.3051 39.3897 34.3611 39.4452C34.417 39.5006 34.4835 39.5446 34.5566 39.5746C34.6298 39.6046 34.7082 39.6201 34.7874 39.6201C34.8665 39.6201 34.9449 39.6047 35.0181 39.5747C35.0912 39.5447 35.1577 39.5008 35.2137 39.4454L38.6191 36.0738L39.1037 35.5939C39.2117 35.4811 39.2708 35.331 39.2687 35.1756C39.2665 35.0202 39.2032 34.8717 39.0923 34.7618C38.9813 34.6519 38.8314 34.5892 38.6744 34.587C38.5174 34.5848 38.3658 34.6433 38.2517 34.75Z" fill="#071546"/>
<path d="M39.104 38.6011L35.6986 35.2299L35.2139 34.7501C35.1009 34.6381 34.9475 34.5752 34.7876 34.5752C34.6277 34.5752 34.4744 34.638 34.3613 34.7499C34.2482 34.8618 34.1846 35.0136 34.1846 35.1719C34.1845 35.3302 34.248 35.482 34.3611 35.594L37.7668 38.9652L38.2515 39.445C38.3071 39.502 38.3737 39.5475 38.4472 39.5788C38.5208 39.6101 38.5999 39.6265 38.6799 39.6272C38.7599 39.6279 38.8393 39.6128 38.9134 39.5828C38.9875 39.5528 39.0548 39.5085 39.1114 39.4524C39.168 39.3964 39.2128 39.3298 39.2431 39.2564C39.2734 39.1831 39.2887 39.1045 39.288 39.0252C39.2873 38.946 39.2707 38.8677 39.2391 38.7949C39.2075 38.7221 39.1615 38.6562 39.104 38.6011Z" fill="#071546"/>
<path d="M45.9359 27.4932L42.5305 30.8644L42.0458 31.3443C41.9327 31.4562 41.8692 31.608 41.8691 31.7663C41.8691 31.9246 41.9326 32.0764 42.0456 32.1884C42.1587 32.3003 42.312 32.3632 42.4719 32.3633C42.6318 32.3633 42.7852 32.3005 42.8983 32.1886L46.3036 28.817L46.7883 28.3371C46.8459 28.2821 46.8918 28.2162 46.9234 28.1434C46.955 28.0706 46.9716 27.9923 46.9723 27.913C46.973 27.8338 46.9578 27.7552 46.9275 27.6819C46.8971 27.6085 46.8524 27.5419 46.7958 27.4858C46.7392 27.4298 46.6719 27.3855 46.5978 27.3555C46.5237 27.3255 46.4443 27.3104 46.3643 27.3111C46.2842 27.3117 46.2051 27.3282 46.1315 27.3595C46.058 27.3908 45.9915 27.4362 45.9359 27.4932Z" fill="#071546"/>
<path d="M46.7884 31.3455L43.3831 27.9743L42.8984 27.4933C42.7853 27.3813 42.632 27.3184 42.4721 27.3184C42.3122 27.3183 42.1588 27.3812 42.0457 27.4931C41.9327 27.605 41.8691 27.7568 41.8691 27.9151C41.869 28.0734 41.9325 28.2252 42.0455 28.3372L45.4513 31.7084L45.936 32.1882C45.9916 32.2452 46.0581 32.2907 46.1317 32.322C46.2052 32.3532 46.2843 32.3697 46.3644 32.3704C46.4444 32.3711 46.5238 32.356 46.5979 32.326C46.672 32.296 46.7393 32.2516 46.7959 32.1956C46.8525 32.1396 46.8973 32.0729 46.9276 31.9996C46.9579 31.9262 46.9731 31.8477 46.9725 31.7684C46.9718 31.6892 46.9551 31.6108 46.9235 31.538C46.8919 31.4652 46.846 31.3994 46.7884 31.3443" fill="#071546"/>
<path d="M48.136 35.8907L44.7306 39.2623L44.246 39.7417C44.1329 39.8536 44.0693 40.0054 44.0693 40.1637C44.0692 40.322 44.1327 40.4738 44.2458 40.5858C44.3588 40.6978 44.5121 40.7607 44.672 40.7607C44.8319 40.7608 44.9853 40.6979 45.0984 40.586L48.5037 37.2144L48.9884 36.7346C49.0982 36.622 49.159 36.4713 49.1576 36.3148C49.1563 36.1583 49.0929 36.0086 48.9811 35.8979C48.8693 35.7873 48.7181 35.7245 48.56 35.7232C48.402 35.7218 48.2497 35.782 48.136 35.8907Z" fill="#071546"/>
<path d="M48.9877 39.7418L45.5824 36.3702L45.0977 35.8907C44.9847 35.7788 44.8313 35.7159 44.6714 35.7158C44.5115 35.7158 44.3582 35.7786 44.2451 35.8905C44.132 36.0024 44.0684 36.1542 44.0684 36.3125C44.0683 36.4708 44.1318 36.6227 44.2449 36.7346L47.6506 40.1058L48.1353 40.5857C48.1909 40.6427 48.2574 40.6881 48.331 40.7194C48.4045 40.7507 48.4836 40.7672 48.5637 40.7678C48.6437 40.7685 48.7231 40.7534 48.7972 40.7234C48.8713 40.6934 48.9386 40.6491 48.9952 40.5931C49.0518 40.537 49.0966 40.4704 49.1269 40.397C49.1572 40.3237 49.1725 40.2451 49.1718 40.1659C49.1711 40.0866 49.1544 40.0083 49.1228 39.9355C49.0912 39.8627 49.0453 39.7968 48.9877 39.7418Z" fill="#071546"/>
<path d="M43.5472 18.1102L40.1435 21.4814L39.6572 21.9625C39.5441 22.0744 39.4805 22.2262 39.4805 22.3845C39.4805 22.5428 39.5439 22.6946 39.657 22.8066C39.77 22.9185 39.9234 22.9814 40.0833 22.9815C40.2432 22.9815 40.3965 22.9187 40.5096 22.8067L43.915 19.4352L44.3997 18.9553C44.5095 18.8428 44.5702 18.692 44.5689 18.5355C44.5675 18.379 44.5041 18.2293 44.3923 18.1187C44.2805 18.008 44.1293 17.9453 43.9713 17.9439C43.8132 17.9426 43.6609 18.0027 43.5472 18.1114" fill="#071546"/>
<path d="M40.5092 21.9626L38.8063 20.2768L38.5652 20.038C38.4521 19.9261 38.2987 19.8633 38.1388 19.8633C37.9789 19.8634 37.8256 19.9263 37.7126 20.0382C37.5995 20.1502 37.536 20.302 37.5361 20.4603C37.5361 20.6186 37.5997 20.7704 37.7127 20.8823L39.4156 22.5677L39.6568 22.8065C39.7124 22.8635 39.7789 22.9089 39.8524 22.9402C39.926 22.9715 40.0051 22.9879 40.0852 22.9886C40.1652 22.9893 40.2446 22.9742 40.3187 22.9442C40.3928 22.9142 40.4601 22.8699 40.5167 22.8139C40.5733 22.7578 40.618 22.6912 40.6484 22.6178C40.6787 22.5445 40.6939 22.4659 40.6932 22.3867C40.6925 22.3074 40.6759 22.2291 40.6443 22.1563C40.6127 22.0835 40.5668 22.0176 40.5092 21.9626Z" fill="#071546"/>
<path d="M18.0182 35.7985C24.0464 34.7736 29.6914 32.1816 34.3757 28.2878C35.6963 27.1907 36.9294 25.9943 38.064 24.7094C38.5732 24.1336 37.7236 23.2862 37.2115 23.8655C33.2813 28.3047 28.2209 31.6198 22.5573 33.4658C20.9698 33.9791 19.3457 34.3741 17.6986 34.6475C16.935 34.7748 17.2589 35.9255 18.0202 35.7985" fill="#071546"/>
<path d="M34.7874 24.6282C35.5619 24.6434 36.3364 24.6493 37.1105 24.6605L37.3584 24.664C37.4346 24.6772 37.5124 24.6787 37.5891 24.6684C37.4878 24.7082 37.3009 24.3839 37.3584 24.5753C37.3721 24.6164 37.389 24.6563 37.4091 24.6947C37.4586 24.8156 37.5063 24.9373 37.5521 25.0595C37.7459 25.5827 37.9019 26.1188 38.0192 26.6638C38.0627 26.8158 38.1649 26.9448 38.3038 27.0228C38.4426 27.1008 38.6069 27.1217 38.7611 27.0807C38.9132 27.0354 39.0418 26.9338 39.1202 26.797C39.1986 26.6602 39.2207 26.4988 39.1819 26.3463C39.0521 25.7432 38.8747 25.1512 38.6513 24.5757C38.5685 24.2089 38.3759 23.8753 38.0987 23.6184C37.865 23.4963 37.6002 23.4448 37.3371 23.4704C36.4871 23.4565 35.6371 23.4513 34.7874 23.4346C34.628 23.4361 34.4755 23.4994 34.3628 23.611C34.25 23.7226 34.186 23.8736 34.1846 24.0314C34.1876 24.1888 34.252 24.3389 34.3645 24.4502C34.4769 24.5615 34.6285 24.6253 34.7874 24.6282Z" fill="#071546"/>
</g>
</g>
</g>
<defs>
<clipPath id="clip0_1_1805">
<rect width="60" height="60" fill="white"/>
</clipPath>
</defs>
</svg>
