<svg width="60" height="60" viewBox="0 0 60 60" fill="none" xmlns="http://www.w3.org/2000/svg">
<g clip-path="url(#clip0_1_1904)">
<mask id="mask0_1_1904" style="mask-type:luminance" maskUnits="userSpaceOnUse" x="0" y="0" width="60" height="60">
<path d="M60 0H0V60H60V0Z" fill="white"/>
</mask>
<g mask="url(#mask0_1_1904)">
<path d="M59.9999 29.6866C60 35.5582 58.2406 41.2979 54.9441 46.18C51.6477 51.062 46.9623 54.8672 41.4805 57.1141C35.9986 59.3611 29.9666 59.9491 24.1471 58.8036C18.3276 57.6581 12.982 54.8307 8.78637 50.6789C4.59075 46.5271 1.7335 41.2373 0.575949 35.4786C-0.581602 29.7198 0.0125422 23.7507 2.28324 18.3261C4.55393 12.9015 8.39919 8.26503 13.3328 5.00301C18.2663 1.74099 24.0666 -7.86567e-05 30.0001 2.66518e-09C37.9566 2.6652e-09 45.5871 3.12769 51.2132 8.69501C56.8392 14.2623 59.9999 21.8132 59.9999 29.6866Z" fill="#00AA9C"/>
<path d="M48.4339 29.6469H46.5932C46.2288 28.3732 45.7144 27.1462 45.0607 25.9912L46.3641 24.7014C46.6262 24.442 46.7734 24.0902 46.7734 23.7235C46.7734 23.3567 46.6262 23.0049 46.3641 22.7455L41.7068 18.1372C41.5771 18.0088 41.4231 17.9069 41.2535 17.8374C41.084 17.7679 40.9023 17.7321 40.7188 17.7321C40.5352 17.7321 40.3535 17.7679 40.184 17.8374C40.0144 17.9069 39.8604 18.0088 39.7307 18.1372L38.4273 19.427C37.26 18.7802 36.0201 18.2711 34.733 17.9101V16.0886C34.7329 15.7218 34.5856 15.3701 34.3234 15.1108C34.0613 14.8515 33.7058 14.7058 33.3351 14.7058H26.7491C26.3785 14.7058 26.0231 14.8515 25.761 15.1108C25.4989 15.3701 25.3517 15.7219 25.3517 16.0886V17.9101C24.0645 18.271 22.8247 18.7801 21.6574 19.427L20.354 18.1372C20.2243 18.0088 20.0703 17.9069 19.9007 17.8374C19.7312 17.7679 19.5494 17.7321 19.3659 17.7321C19.1824 17.7321 19.0007 17.7679 18.8312 17.8374C18.6616 17.9069 18.5076 18.0088 18.3778 18.1372L13.7206 22.7455C13.4585 23.0049 13.3113 23.3567 13.3113 23.7235C13.3113 24.0902 13.4585 24.442 13.7206 24.7014L15.024 25.9912C14.3702 27.1462 13.8559 28.3732 13.4915 29.6469H11.6508C11.2801 29.6469 10.9246 29.7926 10.6625 30.0519C10.4004 30.3112 10.253 30.663 10.2529 31.0298V37.547C10.2529 37.7287 10.2891 37.9085 10.3593 38.0763C10.4296 38.2441 10.5326 38.3966 10.6624 38.525C10.7922 38.6534 10.9463 38.7552 11.1159 38.8247C11.2854 38.8942 11.4672 38.9299 11.6508 38.9299H13.4915C13.8559 40.2036 14.3702 41.4306 15.024 42.5856L13.7206 43.8754C13.4585 44.1348 13.3113 44.4865 13.3113 44.8533C13.3113 45.2201 13.4585 45.5719 13.7206 45.8313L18.3778 50.4396C18.6399 50.6989 18.9953 50.8445 19.3659 50.8445C19.7365 50.8445 20.0919 50.6989 20.354 50.4396L21.6574 49.1498C22.8246 49.7967 24.0645 50.3058 25.3517 50.6667V52.4882C25.3517 52.8549 25.4989 53.2066 25.761 53.466C26.0231 53.7253 26.3785 53.871 26.7491 53.871H33.3351C33.5187 53.871 33.7005 53.8353 33.8701 53.7658C34.0396 53.6964 34.1937 53.5945 34.3235 53.4661C34.4534 53.3377 34.5563 53.1852 34.6266 53.0174C34.6968 52.8496 34.733 52.6698 34.733 52.4882V50.6667C36.0201 50.3057 37.26 49.7966 38.4273 49.1498L39.7307 50.4396C39.9927 50.6989 40.3482 50.8445 40.7188 50.8445C41.0893 50.8445 41.4448 50.6989 41.7068 50.4396L46.3653 45.8337C46.6274 45.5743 46.7746 45.2225 46.7746 44.8557C46.7746 44.4889 46.6274 44.1372 46.3653 43.8778L45.0619 42.588C45.7156 41.433 46.23 40.206 46.5944 38.9322H48.4351C48.6187 38.9323 48.8004 38.8966 48.97 38.8271C49.1396 38.7576 49.2937 38.6558 49.4235 38.5274C49.5533 38.399 49.6563 38.2465 49.7265 38.0787C49.7968 37.9109 49.8329 37.731 49.8329 37.5494V31.0306C49.8328 30.6638 49.6855 30.312 49.4234 30.0527C49.1613 29.7934 48.8058 29.6477 48.4351 29.6477M30.0435 41.0282C28.6966 41.0282 27.3798 40.6331 26.2598 39.8926C25.1398 39.1521 24.2668 38.0996 23.7513 36.8681C23.2358 35.6367 23.1009 34.2817 23.3637 32.9743C23.6265 31.667 24.2751 30.4662 25.2275 29.5237C26.18 28.5812 27.3935 27.9393 28.7146 27.6793C30.0357 27.4193 31.4051 27.5528 32.6495 28.0629C33.894 28.573 34.9576 29.4368 35.7059 30.5451C36.4541 31.6535 36.8535 32.9565 36.8534 34.2894C36.8534 36.0766 36.1359 37.7907 34.8588 39.0544C33.5817 40.3182 31.8496 41.0282 30.0435 41.0282Z" fill="white"/>
<path d="M48.4344 29.0503H46.5937L47.1748 29.4878C46.7888 28.1668 46.2543 26.8928 45.5813 25.6897L45.4872 26.4127C46.2368 25.671 47.3762 24.8752 47.3762 23.723C47.3762 22.7076 46.543 22.0785 45.8835 21.4258L43.3093 18.8805C42.7611 18.338 42.1538 17.5342 41.4047 17.2594C39.9221 16.715 38.9149 18.1018 38.001 19.0062L38.7312 18.9131C37.5154 18.2472 36.228 17.7182 34.893 17.3362L35.3351 17.9117C35.3351 16.8864 35.5682 15.5489 34.7929 14.7352C34.0719 13.9795 33.0402 14.1104 32.0926 14.1104H28.4123C27.6137 14.1104 26.5463 13.9549 25.8136 14.3402C24.4736 15.0458 24.7485 16.6585 24.7485 17.9117L25.1906 17.3362C23.8557 17.7182 22.5683 18.2472 21.3524 18.9131L22.0827 19.0062C21.3336 18.2644 20.5293 17.1369 19.365 17.1369C18.3389 17.1369 17.7031 17.9614 17.0436 18.614L14.4714 21.1594C13.9232 21.7018 13.111 22.3028 12.8329 23.0441C12.283 24.5117 13.6845 25.5099 14.5984 26.4127L14.5044 25.6897C13.8314 26.8928 13.2969 28.1668 12.9108 29.4878L13.492 29.0503C12.4563 29.0503 11.1047 28.8196 10.2824 29.5868C9.51874 30.3003 9.65097 31.3212 9.65097 32.2594V35.9009C9.65097 36.6915 9.49383 37.7474 9.88327 38.4724C10.5959 39.7984 12.226 39.5268 13.492 39.5268L12.9108 39.0893C13.2969 40.4104 13.8314 41.6845 14.5044 42.8878L14.5984 42.1648C13.8489 42.9065 12.7095 43.7019 12.7095 44.8541C12.7095 45.8698 13.5426 46.4986 14.2021 47.1512L16.7743 49.6966C17.3225 50.2391 17.9298 51.0424 18.679 51.3177C20.1616 51.8621 21.1708 50.4749 22.0827 49.5705L21.3524 49.664C22.5683 50.3298 23.8557 50.8586 25.1906 51.2405L24.7485 50.6654C24.7485 51.6907 24.5154 53.0282 25.2907 53.8415C26.0117 54.5972 27.0434 54.4667 27.9911 54.4667H31.6713C32.4699 54.4667 33.5374 54.6222 34.2701 54.2364C35.61 53.5313 35.3351 51.9186 35.3351 50.6654L34.893 51.2405C36.228 50.8586 37.5154 50.3298 38.7312 49.664L38.0013 49.5721C38.7505 50.3138 39.5547 51.4413 40.719 51.4413C41.7451 51.4413 42.3809 50.6169 43.0404 49.9642L45.6126 47.4189C46.1608 46.8764 46.9731 46.2755 47.2512 45.5342C47.801 44.0666 46.3996 43.0684 45.4856 42.1656L45.5797 42.8886C46.2526 41.6853 46.7872 40.4112 47.1732 39.0901L46.5921 39.5276C47.422 39.5276 48.4742 39.693 49.2515 39.3494C50.2225 38.9203 50.4331 38.0083 50.4331 37.0649V31.4342C50.4491 31.1369 50.4283 30.8388 50.3712 30.5465C50.2566 30.1224 50.0053 29.7469 49.6555 29.477C49.3056 29.2071 48.8763 29.0576 48.4328 29.0511C47.6571 29.0145 47.6591 30.2076 48.4328 30.2442C49.2446 30.284 49.2274 31.0086 49.2274 31.5964V36.6541C49.2274 37.1186 49.348 37.8075 48.9493 38.1451C48.6426 38.4056 48.178 38.3324 47.8038 38.3324H46.5921C46.4606 38.3344 46.3333 38.3779 46.2287 38.4566C46.124 38.5353 46.0476 38.6451 46.0105 38.7699C45.6547 39.9919 45.161 41.1703 44.5388 42.2829C44.4739 42.3974 44.448 42.5296 44.465 42.6599C44.482 42.7901 44.541 42.9115 44.6332 43.0059L45.4909 43.855C45.7971 44.1581 46.2336 44.4723 46.1653 44.9575C46.0877 45.5051 45.2734 46.0639 44.9125 46.4211L42.6156 48.6971C42.1755 49.1346 41.754 49.6151 41.2817 50.0171C40.7408 50.4777 40.2769 50.1365 39.8694 49.7332L38.8538 48.7282C38.7583 48.637 38.6357 48.5787 38.5041 48.5618C38.3725 48.545 38.2389 48.5706 38.1231 48.6347C36.9988 49.2506 35.808 49.7393 34.5731 50.0915C34.447 50.1281 34.3361 50.2037 34.2565 50.3072C34.177 50.4106 34.133 50.5366 34.131 50.6666V51.9114C34.131 52.339 34.205 52.8234 33.8131 53.1165C33.3682 53.4494 32.3992 53.2756 31.8888 53.2756H28.5932C27.9843 53.2756 27.3585 53.3153 26.7508 53.2756C26.0616 53.2283 25.9563 52.6854 25.9563 52.1278V50.6674C25.9542 50.5374 25.9102 50.4115 25.8307 50.308C25.7511 50.2045 25.6402 50.129 25.5142 50.0923C24.2793 49.7401 23.0885 49.2514 21.9641 48.6355C21.8483 48.5714 21.7148 48.5459 21.5832 48.5627C21.4516 48.5796 21.329 48.6379 21.2335 48.729C20.9479 49.0121 20.6618 49.2952 20.3754 49.5781C20.0692 49.8811 19.7517 50.313 19.2617 50.245C18.7079 50.1683 18.1432 49.3625 17.7827 49.0058L15.4838 46.7309C15.0437 46.2934 14.5562 45.8786 14.1499 45.4109C13.6849 44.8756 14.0293 44.4166 14.4373 44.0133L15.4525 43.0083C15.5447 42.9139 15.6037 42.7925 15.6207 42.6623C15.6378 42.532 15.6119 42.3998 15.5469 42.2853C14.9246 41.1727 14.431 39.9942 14.0751 38.7723C14.038 38.6475 13.9616 38.5378 13.8569 38.4591C13.7523 38.3804 13.625 38.3368 13.4936 38.3348H12.2356C11.804 38.3348 11.3141 38.408 11.0179 38.0202C10.6815 37.5796 10.8571 36.6207 10.8571 36.1156V32.8544C10.8571 32.2519 10.8149 31.6326 10.8571 31.0313C10.9045 30.3496 11.4531 30.245 12.0166 30.245H13.4924C13.6238 30.2431 13.7512 30.1996 13.8558 30.1208C13.9605 30.0421 14.0369 29.9323 14.0739 29.8075C14.4298 28.5855 14.9235 27.407 15.5457 26.2942C15.6105 26.1796 15.6364 26.0474 15.6193 25.9172C15.6023 25.787 15.5434 25.6656 15.4513 25.5712L14.5936 24.7224C14.2873 24.4194 13.8509 24.1048 13.9192 23.62C13.9968 23.0719 14.811 22.5136 15.1719 22.1564L17.4704 19.8819C17.9125 19.4444 18.3321 18.9636 18.8044 18.5615C19.3453 18.1014 19.8091 18.4422 20.2167 18.8459C20.5556 19.1808 20.8941 19.5158 21.2323 19.8509C21.3278 19.9421 21.4504 20.0003 21.582 20.0171C21.7136 20.0339 21.8472 20.0082 21.9629 19.944C23.0874 19.3283 24.2782 18.8398 25.5129 18.4876C25.639 18.4509 25.7498 18.3753 25.8294 18.2718C25.9089 18.1683 25.9529 18.0424 25.9551 17.9125V16.6676C25.9551 16.2401 25.8811 15.7557 26.2729 15.4626C26.7179 15.1293 27.6869 15.3035 28.1973 15.3035H31.4929C32.1018 15.3035 32.7276 15.2637 33.3352 15.3035C34.0245 15.3504 34.1298 15.8933 34.1298 16.4509V17.9117C34.1318 18.0417 34.1759 18.1676 34.2554 18.2711C34.335 18.3745 34.4459 18.4501 34.5719 18.4868C35.8067 18.839 36.9975 19.3276 38.1219 19.9432C38.2377 20.0074 38.3712 20.033 38.5028 20.0162C38.6344 19.9995 38.7571 19.9412 38.8526 19.8501C39.1382 19.5669 39.4242 19.2839 39.7107 19.001C40.0169 18.6979 40.3344 18.266 40.8243 18.334C41.3782 18.4104 41.9428 19.2162 42.3034 19.5733L44.6022 21.8478C45.0443 22.2853 45.5298 22.7005 45.9362 23.1678C46.4012 23.7031 46.0567 24.1621 45.6488 24.5657L44.6336 25.5704C44.5413 25.6648 44.4824 25.7861 44.4653 25.9164C44.4483 26.0466 44.4742 26.1788 44.5391 26.2934C45.1614 27.4062 45.6551 28.5847 46.0109 29.8068C46.048 29.9315 46.1245 30.0413 46.2291 30.12C46.3337 30.1987 46.4611 30.2422 46.5925 30.2442H48.4328C48.5927 30.2442 48.7464 30.1814 48.8595 30.0695C48.9725 29.9576 49.036 29.8059 49.036 29.6477C49.036 29.4895 48.9725 29.3377 48.8595 29.2258C48.7464 29.114 48.5927 29.0511 48.4328 29.0511" fill="#071546"/>
<path d="M30.0422 40.4316C28.7627 40.4309 27.5146 40.0391 26.4689 39.3096C25.4231 38.58 24.6307 37.5485 24.2001 36.3562C23.7696 35.1639 23.7219 33.8691 24.0636 32.6489C24.4053 31.4288 25.1197 30.3429 26.1091 29.54C27.0984 28.7371 28.3143 28.2564 29.5904 28.1636C30.8665 28.0709 32.1403 28.3706 33.2376 29.0218C34.3349 29.673 35.202 30.6439 35.7202 31.8016C36.2385 32.9592 36.3825 34.247 36.1327 35.4888C35.8413 36.8775 35.0779 38.1254 33.9697 39.0248C32.8615 39.9241 31.4754 40.4206 30.0422 40.4316C29.8823 40.4316 29.729 40.4944 29.6159 40.6063C29.5028 40.7182 29.4393 40.8699 29.4393 41.0281C29.4393 41.1863 29.5028 41.3381 29.6159 41.45C29.729 41.5618 29.8823 41.6247 30.0422 41.6247C31.5714 41.6249 33.0632 41.1572 34.3133 40.2857C35.5634 39.4141 36.5105 38.1814 37.0249 36.7563C37.5393 35.3313 37.5958 33.7837 37.1867 32.3257C36.7775 30.8676 35.9228 29.5705 34.7395 28.6119C33.5562 27.6534 32.1024 27.0804 30.5772 26.9714C29.052 26.8625 27.53 27.2229 26.2199 28.0034C24.9098 28.7838 23.8756 29.9461 23.2591 31.3309C22.6426 32.7156 22.4739 34.2552 22.7762 35.7386C23.1312 37.3907 24.0443 38.8738 25.3651 39.9437C26.6858 41.0136 28.3354 41.6065 30.0422 41.6247C30.2021 41.6247 30.3554 41.5618 30.4685 41.45C30.5815 41.3381 30.645 41.1863 30.645 41.0281C30.645 40.8699 30.5815 40.7182 30.4685 40.6063C30.3554 40.4944 30.2021 40.4316 30.0422 40.4316Z" fill="#071546"/>
<path d="M44.7785 36.9897H7.47363V59.3736H44.7785V36.9897Z" fill="white"/>
<path d="M44.7783 58.7768H9.00592C8.51731 58.7418 8.02676 58.7418 7.53815 58.7768C7.51661 58.7784 7.495 58.7784 7.47346 58.7768L8.07631 59.3733V36.9895L7.47346 37.586H43.2462C43.7347 37.6212 44.2251 37.6212 44.7136 37.586C44.7351 37.5844 44.7567 37.5844 44.7783 37.586L44.1754 36.9895V59.3733C44.1754 59.5315 44.2389 59.6833 44.352 59.7952C44.4651 59.907 44.6184 59.9699 44.7783 59.9699C44.9382 59.9699 45.0915 59.907 45.2046 59.7952C45.3176 59.6833 45.3811 59.5315 45.3811 59.3733V36.9895C45.3788 36.8319 45.3146 36.6815 45.202 36.5701C45.0895 36.4587 44.9374 36.3951 44.7783 36.3929H12.0588C10.5577 36.3929 9.03846 36.3257 7.53815 36.3929C7.51685 36.3929 7.49517 36.3929 7.47346 36.3929C7.31429 36.3951 7.16227 36.4587 7.0497 36.5701C6.93714 36.6815 6.87289 36.8319 6.87061 36.9895V59.3733C6.87289 59.5308 6.93714 59.6813 7.0497 59.7927C7.16227 59.904 7.31429 59.9676 7.47346 59.9699H40.1934C41.6945 59.9699 43.2137 60.0375 44.7136 59.9699C44.7349 59.9699 44.7566 59.9699 44.7783 59.9699C44.9382 59.9699 45.0915 59.907 45.2046 59.7952C45.3176 59.6833 45.3811 59.5315 45.3811 59.3733C45.3811 59.2151 45.3176 59.0634 45.2046 58.9515C45.0915 58.8396 44.9382 58.7768 44.7783 58.7768Z" fill="#071546"/>
<path d="M11.2158 39.6508C11.2158 39.8073 11.1689 39.9604 11.081 40.0905C10.9931 40.2207 10.8682 40.3221 10.7221 40.382C10.5759 40.4419 10.4151 40.4576 10.26 40.4271C10.1048 40.3965 9.96234 40.3211 9.85048 40.2105C9.73863 40.0998 9.66244 39.9587 9.63158 39.8052C9.60071 39.6517 9.61657 39.4926 9.6771 39.3479C9.73764 39.2033 9.84014 39.0797 9.97166 38.9928C10.1032 38.9058 10.2578 38.8594 10.416 38.8594C10.6281 38.8594 10.8316 38.9428 10.9816 39.0912C11.1315 39.2396 11.2158 39.4409 11.2158 39.6508Z" fill="white"/>
<path d="M10.6131 39.6508C10.6128 39.6873 10.6102 39.7239 10.6055 39.7601L10.6272 39.601C10.6165 39.671 10.5972 39.7394 10.5697 39.8047L10.6304 39.6623C10.6021 39.7255 10.5662 39.785 10.5235 39.8397L10.6175 39.7204C10.5784 39.7686 10.534 39.8125 10.4853 39.8512L10.6058 39.7582C10.5506 39.8004 10.4904 39.8359 10.4266 39.8639L10.5705 39.8039C10.5045 39.8311 10.4354 39.8502 10.3647 39.8608L10.5255 39.8393C10.4522 39.8484 10.3781 39.8484 10.3048 39.8393L10.4656 39.8608C10.3949 39.8502 10.3258 39.8311 10.2598 39.8039L10.4037 39.8639C10.3399 39.8359 10.2797 39.8004 10.2245 39.7582L10.345 39.8512C10.2964 39.8123 10.2521 39.7684 10.2128 39.7204L10.3072 39.8397C10.2646 39.785 10.2287 39.7255 10.2003 39.6623C10.2204 39.7096 10.2405 39.7574 10.261 39.8047C10.2335 39.7394 10.2142 39.671 10.2036 39.601L10.2253 39.7601C10.216 39.6875 10.216 39.614 10.2253 39.5414L10.2036 39.7005C10.2142 39.6305 10.2335 39.5622 10.261 39.4969C10.2405 39.5442 10.2208 39.5919 10.2003 39.6392C10.2287 39.5761 10.2646 39.5165 10.3072 39.4619L10.2128 39.5812C10.2521 39.5331 10.2964 39.4892 10.345 39.4503L10.2245 39.5434C10.2797 39.5011 10.3399 39.4656 10.4037 39.4376L10.2598 39.4977C10.3258 39.4705 10.3949 39.4514 10.4656 39.4408L10.3048 39.4622C10.3781 39.4531 10.4522 39.4531 10.5255 39.4622L10.3647 39.4408C10.4354 39.4514 10.5045 39.4705 10.5705 39.4977L10.4266 39.4376C10.4904 39.4656 10.5506 39.5011 10.6058 39.5434L10.4853 39.4503C10.534 39.489 10.5784 39.5329 10.6175 39.5812L10.5235 39.4619C10.5662 39.5165 10.6021 39.5761 10.6304 39.6392L10.5697 39.4969C10.5972 39.5622 10.6165 39.6305 10.6272 39.7005L10.6055 39.5414C10.6102 39.5777 10.6128 39.6142 10.6131 39.6508C10.6131 39.809 10.6766 39.9607 10.7897 40.0726C10.9027 40.1845 11.0561 40.2473 11.2159 40.2473C11.3758 40.2473 11.5292 40.1845 11.6422 40.0726C11.7553 39.9607 11.8188 39.809 11.8188 39.6508C11.8194 39.3776 11.7373 39.1106 11.5833 38.884C11.4063 38.6321 11.1546 38.4407 10.8631 38.3363C10.6025 38.2485 10.3214 38.239 10.0553 38.3092C9.7893 38.3793 9.55026 38.5259 9.36839 38.7305C9.25434 38.8642 9.16361 39.0158 9.09993 39.1791C9.05307 39.306 9.02515 39.4391 9.01712 39.574C9.00087 39.8436 9.0651 40.112 9.20181 40.3458C9.33851 40.5796 9.54165 40.7684 9.78597 40.8888C10.0764 41.0252 10.4033 41.0659 10.7188 41.005C11.0055 40.9471 11.265 40.7974 11.4571 40.579C11.685 40.3218 11.8132 39.9928 11.8188 39.6508C11.8188 39.4925 11.7553 39.3408 11.6422 39.2289C11.5292 39.1171 11.3758 39.0542 11.2159 39.0542C11.0561 39.0542 10.9027 39.1171 10.7897 39.2289C10.6766 39.3408 10.6131 39.4925 10.6131 39.6508Z" fill="#071546"/>
<path d="M14.7016 39.6508C14.7016 39.8073 14.6547 39.9604 14.5668 40.0905C14.479 40.2207 14.3541 40.3221 14.2079 40.382C14.0618 40.4419 13.901 40.4576 13.7458 40.4271C13.5907 40.3965 13.4482 40.3211 13.3363 40.2105C13.2245 40.0998 13.1483 39.9587 13.1174 39.8052C13.0866 39.6517 13.1024 39.4926 13.1629 39.3479C13.2235 39.2033 13.326 39.0797 13.4575 38.9928C13.589 38.9058 13.7437 38.8594 13.9019 38.8594C14.114 38.8594 14.3174 38.9428 14.4674 39.0912C14.6174 39.2396 14.7016 39.4409 14.7016 39.6508Z" fill="white"/>
<path d="M14.0986 39.6509C14.0982 39.6874 14.0957 39.724 14.0909 39.7603L14.1127 39.6012C14.102 39.6711 14.0827 39.7395 14.0552 39.8048L14.1159 39.6624C14.0875 39.7256 14.0517 39.7851 14.009 39.8398L14.103 39.7205C14.0639 39.7687 14.0196 39.8126 13.9708 39.8513L14.0914 39.7583C14.036 39.8006 13.9757 39.8361 13.9117 39.864L14.056 39.804C13.99 39.8312 13.9209 39.8503 13.8502 39.8609L14.011 39.8394C13.9377 39.8485 13.8636 39.8485 13.7903 39.8394L13.9511 39.8609C13.8804 39.8503 13.8113 39.8312 13.7453 39.804L13.8892 39.864C13.8254 39.836 13.7652 39.8005 13.7099 39.7583L13.8305 39.8513C13.782 39.8124 13.7376 39.7685 13.6983 39.7205L13.7928 39.8398C13.7501 39.7851 13.7141 39.7256 13.6858 39.6624C13.7059 39.7097 13.726 39.7575 13.7465 39.8048C13.719 39.7395 13.6997 39.6711 13.689 39.6012L13.7107 39.7603C13.7015 39.6876 13.7015 39.6141 13.7107 39.5415L13.689 39.7006C13.6997 39.6306 13.719 39.5623 13.7465 39.497C13.726 39.5443 13.7063 39.592 13.6858 39.6393C13.7141 39.5762 13.7501 39.5166 13.7928 39.462L13.6983 39.5813C13.7376 39.5332 13.782 39.4894 13.8305 39.4504L13.7099 39.5435C13.7652 39.5012 13.8254 39.4657 13.8892 39.4377L13.7453 39.4978C13.8113 39.4706 13.8804 39.4515 13.9511 39.4409L13.7903 39.4624C13.8636 39.4532 13.9377 39.4532 14.011 39.4624L13.8502 39.4409C13.9209 39.4515 13.99 39.4706 14.056 39.4978L13.9117 39.4377C13.9757 39.4656 14.036 39.5011 14.0914 39.5435L13.9708 39.4504C14.0196 39.4891 14.0639 39.533 14.103 39.5813L14.009 39.462C14.0517 39.5166 14.0875 39.5762 14.1159 39.6393L14.0552 39.497C14.0827 39.5623 14.102 39.6306 14.1127 39.7006L14.0909 39.5415C14.0957 39.5778 14.0982 39.6143 14.0986 39.6509C14.0986 39.8091 14.1621 39.9608 14.2752 40.0727C14.3882 40.1846 14.5416 40.2474 14.7015 40.2474C14.8613 40.2474 15.0147 40.1846 15.1277 40.0727C15.2408 39.9608 15.3043 39.8091 15.3043 39.6509C15.3049 39.3778 15.2228 39.1107 15.0688 38.8841C14.8918 38.6322 14.6401 38.4408 14.3486 38.3364C14.088 38.2485 13.8069 38.239 13.5408 38.3091C13.2747 38.3793 13.0357 38.5259 12.8539 38.7306C12.7398 38.8643 12.6491 39.0159 12.5854 39.1792C12.5386 39.3062 12.5107 39.4392 12.5026 39.5741C12.4838 39.8484 12.5506 40.1217 12.6939 40.3572C12.8296 40.5867 13.0304 40.7716 13.2715 40.8889C13.5619 41.0253 13.8888 41.066 14.2043 41.0051C14.491 40.9472 14.7505 40.7975 14.9426 40.5791C15.1705 40.3219 15.2987 39.9929 15.3043 39.6509C15.3043 39.4927 15.2408 39.3409 15.1277 39.229C15.0147 39.1172 14.8613 39.0543 14.7015 39.0543C14.5416 39.0543 14.3882 39.1172 14.2752 39.229C14.1621 39.3409 14.0986 39.4927 14.0986 39.6509Z" fill="#071546"/>
<path d="M18.1875 39.6508C18.1875 39.8073 18.1406 39.9604 18.0527 40.0905C17.9648 40.2207 17.8399 40.3221 17.6938 40.382C17.5476 40.4419 17.3868 40.4576 17.2316 40.4271C17.0765 40.3965 16.934 40.3211 16.8221 40.2105C16.7103 40.0998 16.6341 39.9587 16.6033 39.8052C16.5724 39.6517 16.5882 39.4926 16.6488 39.3479C16.7093 39.2033 16.8118 39.0797 16.9433 38.9928C17.0749 38.9058 17.2295 38.8594 17.3877 38.8594C17.5998 38.8594 17.8032 38.9428 17.9532 39.0912C18.1032 39.2396 18.1875 39.4409 18.1875 39.6508Z" fill="white"/>
<path d="M17.5848 39.6509C17.5844 39.6874 17.5819 39.724 17.5771 39.7603L17.5988 39.6012C17.5882 39.6711 17.5688 39.7395 17.5414 39.8048L17.6021 39.6624C17.5737 39.7256 17.5378 39.7851 17.4952 39.8398L17.5892 39.7205C17.5501 39.7687 17.5057 39.8126 17.457 39.8513L17.5775 39.7583C17.5223 39.8005 17.4621 39.836 17.3983 39.864L17.5422 39.804C17.4762 39.8312 17.4071 39.8503 17.3364 39.8609L17.4971 39.8394C17.4239 39.8485 17.3498 39.8485 17.2765 39.8394L17.4373 39.8609C17.3666 39.8503 17.2975 39.8312 17.2315 39.804L17.3754 39.864C17.3116 39.836 17.2514 39.8005 17.1961 39.7583L17.3167 39.8513C17.2681 39.8124 17.2238 39.7685 17.1845 39.7205L17.2789 39.8398C17.2362 39.7851 17.2003 39.7256 17.172 39.6624C17.1921 39.7097 17.2122 39.7575 17.2327 39.8048C17.2052 39.7395 17.1859 39.6711 17.1752 39.6012L17.1969 39.7603C17.1877 39.6876 17.1877 39.6141 17.1969 39.5415L17.1752 39.7006C17.1859 39.6306 17.2052 39.5623 17.2327 39.497C17.2122 39.5443 17.1925 39.592 17.172 39.6393C17.2003 39.5762 17.2362 39.5166 17.2789 39.462L17.1845 39.5813C17.2238 39.5332 17.2681 39.4893 17.3167 39.4504L17.1961 39.5435C17.2514 39.5012 17.3116 39.4657 17.3754 39.4377L17.2315 39.4978C17.2975 39.4706 17.3666 39.4515 17.4373 39.4409L17.2765 39.4624C17.3498 39.4532 17.4239 39.4532 17.4971 39.4624L17.3364 39.4409C17.4071 39.4515 17.4762 39.4706 17.5422 39.4978L17.3983 39.4377C17.4621 39.4657 17.5223 39.5012 17.5775 39.5435L17.457 39.4504C17.5057 39.4891 17.5501 39.533 17.5892 39.5813L17.4952 39.462C17.5378 39.5166 17.5737 39.5762 17.6021 39.6393L17.5414 39.497C17.5688 39.5623 17.5881 39.6306 17.5988 39.7006L17.5771 39.5415C17.5819 39.5778 17.5844 39.6143 17.5848 39.6509C17.5848 39.8091 17.6483 39.9608 17.7613 40.0727C17.8744 40.1846 18.0277 40.2474 18.1876 40.2474C18.3475 40.2474 18.5009 40.1846 18.6139 40.0727C18.727 39.9608 18.7905 39.8091 18.7905 39.6509C18.791 39.3778 18.709 39.1107 18.555 38.8841C18.378 38.6322 18.1263 38.4408 17.8348 38.3364C17.5742 38.2485 17.2931 38.239 17.027 38.3091C16.7609 38.3793 16.5219 38.5259 16.3401 38.7306C16.226 38.8643 16.1353 39.0159 16.0716 39.1792C16.0248 39.3062 15.9969 39.4392 15.9888 39.5741C15.9725 39.8437 16.0368 40.1121 16.1735 40.3459C16.3102 40.5797 16.5133 40.7685 16.7577 40.8889C17.0481 41.0253 17.375 41.066 17.6905 41.0051C17.9772 40.9472 18.2367 40.7975 18.4288 40.5791C18.6567 40.3219 18.7849 39.9929 18.7905 39.6509C18.7905 39.4927 18.727 39.3409 18.6139 39.229C18.5009 39.1172 18.3475 39.0543 18.1876 39.0543C18.0277 39.0543 17.8744 39.1172 17.7613 39.229C17.6483 39.3409 17.5848 39.4927 17.5848 39.6509Z" fill="#071546"/>
<path d="M7.47346 43.0003H40.1929C41.694 43.0003 43.2133 43.0679 44.7132 43.0003C44.7349 43.0003 44.7566 43.0003 44.7783 43.0003C44.9382 43.0003 45.0915 42.9374 45.2046 42.8255C45.3176 42.7137 45.3811 42.5619 45.3811 42.4037C45.3811 42.2455 45.3176 42.0938 45.2046 41.9819C45.0915 41.87 44.9382 41.8071 44.7783 41.8071H12.0584C10.5573 41.8071 9.03805 41.7395 7.53815 41.8071C7.51685 41.8071 7.49517 41.8071 7.47346 41.8071C7.31358 41.8071 7.16023 41.87 7.04717 41.9819C6.93412 42.0938 6.87061 42.2455 6.87061 42.4037C6.87061 42.5619 6.93412 42.7137 7.04717 42.8255C7.16023 42.9374 7.31358 43.0003 7.47346 43.0003Z" fill="#071546"/>
<path d="M52.5265 31.4883H15.2217V53.8722H52.5265V31.4883Z" fill="white"/>
<path d="M52.5268 53.2756H16.7545C16.266 53.2406 15.7756 53.2406 15.2871 53.2756C15.2654 53.2771 15.2437 53.2771 15.222 53.2756L15.8249 53.8721V31.4883L15.222 32.0848H50.9948C51.4832 32.12 51.9736 32.12 52.4621 32.0848C52.4837 32.0832 52.5053 32.0832 52.5268 32.0848L51.924 31.4883V53.8721C51.924 54.0303 51.9875 54.1821 52.1005 54.294C52.2136 54.4058 52.3669 54.4687 52.5268 54.4687C52.6867 54.4687 52.84 54.4058 52.9531 54.294C53.0661 54.1821 53.1297 54.0303 53.1297 53.8721V31.4883C53.1274 31.3307 53.0631 31.1803 52.9506 31.0689C52.838 30.9575 52.686 30.8939 52.5268 30.8917H19.8073C18.3062 30.8917 16.787 30.8245 15.2871 30.8917C15.2654 30.8917 15.2437 30.8917 15.222 30.8917C15.0628 30.8939 14.9108 30.9575 14.7982 31.0689C14.6857 31.1803 14.6214 31.3307 14.6191 31.4883V53.8721C14.6214 54.0296 14.6857 54.1801 14.7982 54.2915C14.9108 54.4028 15.0628 54.4664 15.222 54.4687H47.9419C49.443 54.4687 50.9622 54.5363 52.4621 54.4687C52.4834 54.4687 52.5051 54.4687 52.5268 54.4687C52.6867 54.4687 52.84 54.4058 52.9531 54.294C53.0661 54.1821 53.1297 54.0303 53.1297 53.8721C53.1297 53.7139 53.0661 53.5622 52.9531 53.4503C52.84 53.3384 52.6867 53.2756 52.5268 53.2756Z" fill="#071546"/>
<path d="M18.9648 34.1494C18.9648 34.3059 18.9179 34.4589 18.83 34.5891C18.7421 34.7192 18.6172 34.8206 18.4711 34.8805C18.325 34.9405 18.1641 34.9561 18.009 34.9256C17.8539 34.8951 17.7113 34.8197 17.5995 34.709C17.4876 34.5983 17.4115 34.4573 17.3806 34.3038C17.3497 34.1502 17.3656 33.9911 17.4261 33.8465C17.4866 33.7019 17.5892 33.5783 17.7207 33.4913C17.8522 33.4043 18.0069 33.3579 18.165 33.3579C18.2701 33.3579 18.3741 33.3784 18.4711 33.4182C18.5681 33.4579 18.6563 33.5162 18.7306 33.5897C18.8048 33.6632 18.8637 33.7505 18.9039 33.8465C18.9441 33.9425 18.9648 34.0454 18.9648 34.1494Z" fill="white"/>
<path d="M18.3618 34.1492C18.3614 34.1858 18.3589 34.2223 18.3541 34.2586L18.3758 34.0995C18.3652 34.1694 18.3459 34.2378 18.3184 34.3031L18.379 34.1607C18.3507 34.2239 18.3148 34.2835 18.2721 34.3381L18.3662 34.2188C18.3271 34.2671 18.2827 34.311 18.234 34.3497L18.3545 34.2566C18.2992 34.2989 18.2389 34.3345 18.1749 34.3624L18.3192 34.3023C18.2532 34.3295 18.1841 34.3486 18.1134 34.3592L18.2742 34.3377C18.2009 34.3469 18.1268 34.3469 18.0535 34.3377L18.2143 34.3592C18.1436 34.3486 18.0745 34.3295 18.0085 34.3023L18.1524 34.3624C18.0886 34.3344 18.0284 34.2989 17.9731 34.2566L18.0937 34.3497C18.0451 34.3107 18.0008 34.2669 17.9615 34.2188L18.0559 34.3381C18.0132 34.2835 17.9773 34.2239 17.949 34.1607C17.9691 34.2081 17.9892 34.2558 18.0097 34.3031C17.9822 34.2378 17.9629 34.1694 17.9522 34.0995L17.9739 34.2586C17.9647 34.186 17.9647 34.1125 17.9739 34.0399L17.9522 34.1989C17.9629 34.129 17.9822 34.0606 18.0097 33.9953C17.9892 34.0426 17.9695 34.0903 17.949 34.1377C17.9773 34.0745 18.0132 34.015 18.0559 33.9603L17.9615 34.0796C18.0008 34.0315 18.0451 33.9877 18.0937 33.9488L17.9731 34.0418C18.0284 33.9996 18.0886 33.9641 18.1524 33.936L18.0085 33.9961C18.0745 33.9689 18.1436 33.9498 18.2143 33.9392L18.0535 33.9607C18.1268 33.9516 18.2009 33.9516 18.2742 33.9607L18.1134 33.9392C18.1841 33.9498 18.2532 33.9689 18.3192 33.9961L18.1749 33.936C18.2389 33.964 18.2992 33.9995 18.3545 34.0418L18.234 33.9488C18.2827 33.9875 18.3271 34.0314 18.3662 34.0796L18.2721 33.9603C18.3148 34.015 18.3507 34.0745 18.379 34.1377L18.3184 33.9953C18.3459 34.0606 18.3652 34.129 18.3758 34.1989L18.3541 34.0399C18.3589 34.0761 18.3614 34.1126 18.3618 34.1492C18.3618 34.3074 18.4253 34.4592 18.5383 34.571C18.6514 34.6829 18.8047 34.7458 18.9646 34.7458C19.1245 34.7458 19.2779 34.6829 19.3909 34.571C19.504 34.4592 19.5675 34.3074 19.5675 34.1492C19.568 33.8761 19.486 33.6091 19.332 33.3824C19.155 33.1305 18.9033 32.9392 18.6118 32.8348C18.3512 32.7468 18.07 32.7373 17.804 32.8074C17.5379 32.8776 17.2989 33.0243 17.1171 33.2289C17.003 33.3627 16.9123 33.5143 16.8486 33.6775C16.8018 33.8045 16.7739 33.9375 16.7658 34.0725C16.747 34.3467 16.8138 34.6201 16.9571 34.8556C17.0928 35.085 17.2936 35.2699 17.5347 35.3873C17.8251 35.5237 18.152 35.5644 18.4675 35.5034C18.7542 35.4456 19.0137 35.2959 19.2058 35.0775C19.4337 34.8202 19.5619 34.4913 19.5675 34.1492C19.5675 33.991 19.504 33.8393 19.3909 33.7274C19.2779 33.6155 19.1245 33.5527 18.9646 33.5527C18.8047 33.5527 18.6514 33.6155 18.5383 33.7274C18.4253 33.8393 18.3618 33.991 18.3618 34.1492Z" fill="#071546"/>
<path d="M22.4521 34.1494C22.4521 34.3059 22.4052 34.4589 22.3173 34.5891C22.2295 34.7192 22.1045 34.8206 21.9584 34.8805C21.8123 34.9405 21.6514 34.9561 21.4963 34.9256C21.3412 34.8951 21.1986 34.8197 21.0868 34.709C20.9749 34.5983 20.8988 34.4573 20.8679 34.3038C20.837 34.1502 20.8529 33.9911 20.9134 33.8465C20.9739 33.7019 21.0765 33.5783 21.208 33.4913C21.3395 33.4043 21.4942 33.3579 21.6523 33.3579C21.7574 33.3579 21.8614 33.3784 21.9584 33.4182C22.0554 33.4579 22.1436 33.5162 22.2179 33.5897C22.2921 33.6632 22.3511 33.7505 22.3912 33.8465C22.4314 33.9425 22.4521 34.0454 22.4521 34.1494Z" fill="white"/>
<path d="M21.8489 34.1492C21.8486 34.1858 21.8461 34.2223 21.8413 34.2586L21.863 34.0995C21.8523 34.1694 21.833 34.2378 21.8055 34.3031L21.8662 34.1607C21.8379 34.2239 21.802 34.2835 21.7593 34.3381L21.8533 34.2188C21.8142 34.2671 21.7699 34.311 21.7211 34.3497L21.8417 34.2566C21.7864 34.2989 21.7263 34.3344 21.6624 34.3624L21.8063 34.3023C21.7403 34.3295 21.6712 34.3486 21.6005 34.3592L21.7613 34.3377C21.688 34.3469 21.6139 34.3469 21.5407 34.3377L21.7014 34.3592C21.6307 34.3486 21.5616 34.3295 21.4956 34.3023L21.6395 34.3624C21.5757 34.3344 21.5155 34.2988 21.4603 34.2566L21.5809 34.3497C21.5323 34.3107 21.4879 34.2669 21.4486 34.2188L21.5431 34.3381C21.5004 34.2835 21.4645 34.2239 21.4362 34.1607C21.4562 34.2081 21.4763 34.2558 21.4968 34.3031C21.4694 34.2378 21.4501 34.1694 21.4394 34.0995L21.4611 34.2586C21.4518 34.186 21.4518 34.1125 21.4611 34.0399L21.4394 34.1989C21.4501 34.129 21.4694 34.0606 21.4968 33.9953C21.4763 34.0426 21.4567 34.0903 21.4362 34.1377C21.4645 34.0745 21.5004 34.015 21.5431 33.9603L21.4486 34.0796C21.4879 34.0315 21.5323 33.9877 21.5809 33.9488L21.4603 34.0418C21.5155 33.9996 21.5757 33.9641 21.6395 33.936L21.4956 33.9961C21.5616 33.9689 21.6307 33.9498 21.7014 33.9392L21.5407 33.9607C21.6139 33.9516 21.688 33.9516 21.7613 33.9607L21.6005 33.9392C21.6712 33.9498 21.7403 33.9689 21.8063 33.9961L21.6624 33.936C21.7263 33.9641 21.7864 33.9996 21.8417 34.0418L21.7211 33.9488C21.7699 33.9875 21.8142 34.0313 21.8533 34.0796L21.7593 33.9603C21.802 34.015 21.8379 34.0745 21.8662 34.1377L21.8055 33.9953C21.833 34.0606 21.8523 34.129 21.863 34.1989L21.8413 34.0399C21.8461 34.0761 21.8486 34.1126 21.8489 34.1492C21.8489 34.3074 21.9124 34.4592 22.0255 34.571C22.1386 34.6829 22.2919 34.7458 22.4518 34.7458C22.6117 34.7458 22.765 34.6829 22.8781 34.571C22.9911 34.4592 23.0546 34.3074 23.0546 34.1492C23.0552 33.8761 22.9732 33.6091 22.8191 33.3824C22.6421 33.1305 22.3905 32.9392 22.0989 32.8348C21.8383 32.7468 21.5572 32.7373 21.2911 32.8074C21.0251 32.8776 20.786 33.0243 20.6042 33.2289C20.4902 33.3627 20.3994 33.5143 20.3357 33.6775C20.2889 33.8045 20.261 33.9375 20.253 34.0725C20.2367 34.3421 20.3009 34.6105 20.4376 34.8443C20.5743 35.078 20.7775 35.2669 21.0218 35.3873C21.3122 35.5237 21.6391 35.5644 21.9546 35.5034C22.2413 35.4456 22.5008 35.2959 22.6929 35.0775C22.9209 34.8202 23.0491 34.4913 23.0546 34.1492C23.0546 33.991 22.9911 33.8393 22.8781 33.7274C22.765 33.6155 22.6117 33.5527 22.4518 33.5527C22.2919 33.5527 22.1386 33.6155 22.0255 33.7274C21.9124 33.8393 21.8489 33.991 21.8489 34.1492Z" fill="#071546"/>
<path d="M25.936 34.1494C25.936 34.3059 25.8891 34.4589 25.8012 34.5891C25.7133 34.7192 25.5884 34.8206 25.4423 34.8805C25.2961 34.9405 25.1353 34.9561 24.9802 34.9256C24.825 34.8951 24.6825 34.8197 24.5707 34.709C24.4588 34.5983 24.3827 34.4573 24.3518 34.3038C24.3209 34.1502 24.3368 33.9911 24.3973 33.8465C24.4578 33.7019 24.5604 33.5783 24.6919 33.4913C24.8234 33.4043 24.978 33.3579 25.1362 33.3579C25.2413 33.3579 25.3453 33.3784 25.4423 33.4182C25.5393 33.4579 25.6275 33.5162 25.7017 33.5897C25.776 33.6632 25.8349 33.7505 25.8751 33.8465C25.9153 33.9425 25.936 34.0454 25.936 34.1494Z" fill="white"/>
<path d="M25.3333 34.1493C25.3329 34.1859 25.3304 34.2224 25.3256 34.2587L25.3473 34.0996C25.3367 34.1696 25.3174 34.2379 25.2899 34.3032L25.3506 34.1609C25.3223 34.224 25.2864 34.2836 25.2437 34.3382L25.3377 34.2189C25.2986 34.2672 25.2542 34.3111 25.2055 34.3498L25.3261 34.2567C25.2707 34.2991 25.2104 34.3346 25.1464 34.3625L25.2907 34.3024C25.2247 34.3296 25.1556 34.3487 25.0849 34.3593L25.2457 34.3378C25.1724 34.347 25.0983 34.347 25.025 34.3378L25.1858 34.3593C25.1151 34.3487 25.046 34.3296 24.98 34.3024L25.1239 34.3625C25.0601 34.3345 24.9999 34.299 24.9446 34.2567L25.0652 34.3498C25.0166 34.3109 24.9723 34.267 24.933 34.2189L25.0274 34.3382C24.9847 34.2836 24.9488 34.224 24.9205 34.1609C24.9406 34.2082 24.9607 34.2559 24.9812 34.3032C24.9537 34.2379 24.9344 34.1696 24.9237 34.0996L24.9454 34.2587C24.9362 34.1861 24.9362 34.1126 24.9454 34.04L24.9237 34.199C24.9344 34.1291 24.9537 34.0607 24.9812 33.9954C24.9607 34.0428 24.941 34.0905 24.9205 34.1378C24.9488 34.0746 24.9847 34.0151 25.0274 33.9604L24.933 34.0797C24.9723 34.0317 25.0166 33.9878 25.0652 33.9489L24.9446 34.0419C24.9999 33.9997 25.0601 33.9642 25.1239 33.9362L24.98 33.9962C25.0459 33.97 25.1147 33.9519 25.185 33.9421L25.0242 33.9636C25.0975 33.9545 25.1716 33.9545 25.2449 33.9636L25.0841 33.9421C25.1548 33.9527 25.2239 33.9718 25.2899 33.999L25.1456 33.9389C25.2096 33.9669 25.2699 34.0024 25.3252 34.0447L25.2047 33.9517C25.2534 33.9904 25.2978 34.0343 25.3369 34.0825L25.2428 33.9632C25.2855 34.0179 25.3214 34.0774 25.3498 34.1406L25.2891 33.9982C25.3166 34.0635 25.3359 34.1319 25.3465 34.2018L25.3249 34.0427C25.3296 34.079 25.3321 34.1155 25.3325 34.1521C25.3325 34.3103 25.396 34.4621 25.5091 34.574C25.6221 34.6858 25.7755 34.7487 25.9353 34.7487C26.0952 34.7487 26.2486 34.6858 26.3616 34.574C26.4747 34.4621 26.5382 34.3103 26.5382 34.1521C26.5387 33.879 26.4567 33.6119 26.3027 33.3853C26.1257 33.1334 25.874 32.9421 25.5825 32.8377C25.3219 32.7497 25.0407 32.7402 24.7747 32.8104C24.5086 32.8805 24.2696 33.0272 24.0878 33.2318C23.9737 33.3656 23.883 33.5172 23.8193 33.6804C23.7724 33.8074 23.7445 33.9404 23.7365 34.0754C23.7177 34.3496 23.7845 34.623 23.9278 34.8584C24.0635 35.0879 24.2643 35.2728 24.5054 35.3902C24.7958 35.5265 25.1227 35.5672 25.4382 35.5063C25.7249 35.4485 25.9844 35.2988 26.1765 35.0804C26.4044 34.8232 26.5326 34.4942 26.5382 34.1521C26.5382 33.9939 26.4747 33.8422 26.3616 33.7303C26.2486 33.6184 26.0952 33.5556 25.9353 33.5556C25.7755 33.5556 25.6221 33.6184 25.5091 33.7303C25.396 33.8422 25.3325 33.9939 25.3325 34.1521" fill="#071546"/>
<path d="M15.222 37.4988H47.9415C49.4426 37.4988 50.9618 37.5668 52.4621 37.4988C52.4834 37.4988 52.5051 37.4988 52.5268 37.4988C52.6867 37.4988 52.84 37.436 52.9531 37.3241C53.0661 37.2122 53.1297 37.0605 53.1297 36.9022C53.1297 36.744 53.0661 36.5923 52.9531 36.4804C52.84 36.3685 52.6867 36.3057 52.5268 36.3057H19.8069C18.3058 36.3057 16.7866 36.2381 15.2867 36.3057C15.2654 36.3057 15.2437 36.3057 15.222 36.3057C15.0621 36.3057 14.9088 36.3685 14.7957 36.4804C14.6827 36.5923 14.6191 36.744 14.6191 36.9022C14.6191 37.0605 14.6827 37.2122 14.7957 37.3241C14.9088 37.436 15.0621 37.4988 15.222 37.4988Z" fill="#071546"/>
<path d="M29.1661 40.5715L25.2841 44.413L24.7319 44.9594C24.6188 45.0713 24.5552 45.223 24.5552 45.3813C24.5551 45.5395 24.6186 45.6913 24.7317 45.8032C24.8447 45.9151 24.998 45.978 25.1579 45.978C25.3178 45.9781 25.4712 45.9152 25.5843 45.8034L29.4663 41.9619L30.0185 41.415C30.1283 41.3025 30.1891 41.1518 30.1877 40.9954C30.1864 40.839 30.123 40.6894 30.0112 40.5788C29.8994 40.4682 29.7482 40.4054 29.5901 40.4041C29.4321 40.4027 29.2798 40.4628 29.1661 40.5715Z" fill="#071546"/>
<path d="M30.0181 49.3479L26.1631 45.5331L25.6144 44.9902C25.5007 44.8815 25.3485 44.8214 25.1904 44.8228C25.0323 44.8241 24.8811 44.8869 24.7693 44.9975C24.6576 45.1081 24.5942 45.2577 24.5928 45.4141C24.5914 45.5705 24.6522 45.7212 24.762 45.8337C26.0481 47.1064 27.3331 48.378 28.6171 49.6486L29.1657 50.1914C29.2794 50.3001 29.4317 50.3602 29.5897 50.3589C29.7478 50.3575 29.899 50.2948 30.0108 50.1842C30.1226 50.0736 30.186 49.9239 30.1873 49.7675C30.1887 49.6111 30.1279 49.4604 30.0181 49.3479Z" fill="#071546"/>
<path d="M35.8169 39.5001L31.5262 49.2766L30.9185 50.661C30.6127 51.3582 31.6512 51.9663 31.9599 51.2632C33.3898 48.0043 34.8201 44.7455 36.2506 41.4867C36.4532 41.0253 36.6556 40.5638 36.8579 40.1022C37.1641 39.405 36.1256 38.7969 35.8169 39.5001Z" fill="#071546"/>
<path d="M38.5827 50.1914L42.4647 46.3499L43.0169 45.8035C43.0729 45.7481 43.1173 45.6823 43.1476 45.61C43.178 45.5376 43.1936 45.46 43.1936 45.3816C43.1936 45.3033 43.1781 45.2257 43.1478 45.1533C43.1175 45.0809 43.0731 45.0152 43.0171 44.9597C42.9611 44.9043 42.8947 44.8604 42.8215 44.8304C42.7484 44.8004 42.67 44.7849 42.5908 44.7849C42.5117 44.7849 42.4333 44.8003 42.3601 44.8303C42.2869 44.8602 42.2205 44.9042 42.1645 44.9595L38.2825 48.801L37.7303 49.3479C37.6205 49.4604 37.5597 49.6111 37.5611 49.7675C37.5624 49.9239 37.6258 50.0735 37.7376 50.1841C37.8494 50.2947 38.0006 50.3575 38.1586 50.3588C38.3167 50.3602 38.469 50.3001 38.5827 50.1914Z" fill="#071546"/>
<path d="M37.7303 41.4153L41.5853 45.2302L42.1339 45.773C42.2476 45.8817 42.3999 45.9418 42.558 45.9405C42.7161 45.9391 42.8672 45.8764 42.979 45.7658C43.0908 45.6551 43.1542 45.5055 43.1556 45.3491C43.1569 45.1927 43.0962 45.042 42.9864 44.9295L39.1313 41.1147L38.5827 40.5718C38.469 40.4631 38.3167 40.403 38.1586 40.4043C38.0006 40.4057 37.8494 40.4684 37.7376 40.5791C37.6258 40.6897 37.5624 40.8393 37.5611 40.9957C37.5597 41.1521 37.6205 41.3028 37.7303 41.4153Z" fill="#071546"/>
</g>
</g>
<defs>
<clipPath id="clip0_1_1904">
<rect width="60" height="60" fill="white"/>
</clipPath>
</defs>
</svg>
