<svg width="60" height="60" viewBox="0 0 60 60" fill="none" xmlns="http://www.w3.org/2000/svg">
<g clip-path="url(#clip0_1_1940)">
<mask id="mask0_1_1940" style="mask-type:luminance" maskUnits="userSpaceOnUse" x="0" y="0" width="60" height="60">
<path d="M60 0H0V60H60V0Z" fill="white"/>
</mask>
<g mask="url(#mask0_1_1940)">
<path d="M59.9994 29.6852C59.9995 35.5565 58.2401 41.296 54.9436 46.1778C51.6472 51.0597 46.9618 54.8646 41.48 57.1115C35.9982 59.3584 29.9661 59.9463 24.1466 58.8009C18.3271 57.6555 12.9815 54.8282 8.78589 50.6765C4.59026 46.5249 1.73301 41.2354 0.575463 35.4769C-0.582089 29.7184 0.0120497 23.7496 2.28274 18.3252C4.55344 12.9009 8.3987 8.26464 13.3323 5.00277C18.2658 1.74091 24.0661 -7.86531e-05 29.9996 2.66506e-09C33.9393 2.66506e-09 37.8403 0.767835 41.4801 2.25966C45.1198 3.75148 48.4269 5.93808 51.2127 8.69461C53.9984 11.4511 56.2082 14.7236 57.7158 18.3252C59.2235 21.9268 59.9994 25.7869 59.9994 29.6852Z" fill="#00AA9C"/>
<path d="M48.4307 56.5211H11.5049V35.7111C11.505 35.1506 11.7301 34.613 12.1307 34.2166C12.5312 33.8202 13.0745 33.5975 13.641 33.5974H46.2946C46.8611 33.5974 47.4045 33.8201 47.8051 34.2165C48.2057 34.6129 48.4307 35.1505 48.4307 35.7111V56.5211Z" fill="white"/>
<path d="M48.4308 55.9245H13.0266C12.5419 55.8895 12.0552 55.8895 11.5705 55.9245C11.5487 55.9261 11.5268 55.9261 11.505 55.9245L12.1079 56.5211V36.3339C12.1079 36.1299 12.1022 35.925 12.1079 35.721C12.1118 35.3171 12.2756 34.9309 12.5643 34.6453C12.853 34.3597 13.2434 34.1976 13.6516 34.1939C15.2339 34.1446 16.8266 34.1939 18.4089 34.1939H45.8808C46.0162 34.1939 46.152 34.1903 46.2875 34.1939C46.6963 34.198 47.0872 34.361 47.3756 34.6477C47.6641 34.9345 47.827 35.322 47.8292 35.7266C47.8473 36.4027 47.8292 37.0843 47.8292 37.762V56.5211C47.8292 56.6793 47.8927 56.831 48.0058 56.9429C48.1188 57.0547 48.2722 57.1176 48.432 57.1176C48.5919 57.1176 48.7453 57.0547 48.8583 56.9429C48.9714 56.831 49.0349 56.6793 49.0349 56.5211V36.1307C49.0415 35.8988 49.0355 35.6667 49.0168 35.4355C48.9407 34.7714 48.6223 34.1576 48.1213 33.7094C47.6204 33.2611 46.9713 33.0092 46.2959 33.0008C44.7687 32.9611 43.237 33.0008 41.7106 33.0008H13.9514C13.8248 33.0008 13.6974 32.9976 13.5708 33.0032C12.8964 33.0289 12.2547 33.297 11.7658 33.7574C11.2769 34.2177 10.9744 34.8387 10.915 35.5039C10.8588 36.1493 10.9038 36.8139 10.9038 37.4605V56.5211C10.906 56.6786 10.9703 56.829 11.0829 56.9404C11.1954 57.0518 11.3474 57.1153 11.5066 57.1176H43.8873C45.3744 57.1176 46.8807 57.1844 48.3673 57.1176C48.389 57.1176 48.4103 57.1176 48.432 57.1176C48.5919 57.1176 48.7453 57.0547 48.8583 56.9429C48.9714 56.831 49.0349 56.6793 49.0349 56.5211C49.0349 56.3628 48.9718 56.2111 48.8587 56.0992C48.7457 55.9874 48.5923 55.9245 48.4324 55.9245" fill="#071546"/>
<path d="M52.5262 59.3704H7.47266V57.3108C7.47266 56.8904 7.64144 56.4872 7.94187 56.1899C8.24231 55.8926 8.64978 55.7256 9.07465 55.7256H50.9242C51.3491 55.7256 51.7565 55.8926 52.057 56.1899C52.3574 56.4872 52.5262 56.8904 52.5262 57.3108V59.3704Z" fill="white"/>
<path d="M52.5264 58.7739H9.31675C8.7279 58.7362 8.1372 58.7362 7.54836 58.7739C7.52333 58.7755 7.49823 58.7755 7.47321 58.7739L8.07606 59.3705V58.1965C8.02458 57.778 8.04784 57.3539 8.14479 56.9434C8.24198 56.7355 8.40323 56.5634 8.6054 56.4518C8.80758 56.3402 9.04028 56.2948 9.27013 56.3222C10.0739 56.3186 10.8777 56.3222 11.6816 56.3222H50.3818C50.5566 56.3222 50.7335 56.3134 50.9079 56.3222C52.0264 56.3783 51.9227 57.4401 51.9227 58.2446V59.3705C51.9227 59.5287 51.9862 59.6804 52.0993 59.7923C52.2123 59.9042 52.3657 59.967 52.5256 59.967C52.6854 59.967 52.8388 59.9042 52.9518 59.7923C53.0649 59.6804 53.1284 59.5287 53.1284 59.3705C53.1284 58.5393 53.2719 57.5642 53.0553 56.7521C52.9206 56.2789 52.6315 55.8631 52.233 55.5696C51.8346 55.276 51.3491 55.1211 50.8524 55.1291C50.1326 55.1188 49.412 55.1291 48.6926 55.1291H9.4128C9.15501 55.1185 8.89679 55.1333 8.64195 55.1732C8.23893 55.2551 7.86679 55.4461 7.56693 55.7248C7.26707 56.0036 7.05125 56.3592 6.9435 56.7521C6.86082 57.2127 6.83625 57.6817 6.87035 58.1484V59.3705C6.87263 59.528 6.93688 59.6784 7.04945 59.7898C7.16202 59.9012 7.31403 59.9648 7.47321 59.967H46.9825C48.7999 59.967 50.635 60.041 52.4512 59.967C52.4761 59.967 52.5006 59.967 52.5256 59.967C52.6854 59.967 52.8388 59.9042 52.9518 59.7923C53.0649 59.6804 53.1284 59.5287 53.1284 59.3705C53.1284 59.2123 53.0657 59.0605 52.9526 58.9487C52.8396 58.8368 52.6862 58.7739 52.5264 58.7739Z" fill="#071546"/>
<path d="M45.0656 37.5134H15.3154V55.7257H45.0656V37.5134Z" fill="white"/>
<path d="M45.066 55.129H15.3157L15.9186 55.7256V37.5113L15.3157 38.1079H45.066L44.4631 37.5113V55.7256C44.4631 55.8838 44.5266 56.0355 44.6397 56.1474C44.7527 56.2593 44.9061 56.3221 45.066 56.3221C45.2258 56.3221 45.3792 56.2593 45.4923 56.1474C45.6053 56.0355 45.6688 55.8838 45.6688 55.7256V37.5113C45.6665 37.3538 45.6023 37.2034 45.4897 37.092C45.3772 36.9806 45.2251 36.9171 45.066 36.9148H15.3157C15.1566 36.9171 15.0046 36.9806 14.892 37.092C14.7794 37.2034 14.7152 37.3538 14.7129 37.5113V55.7256C14.7152 55.8831 14.7794 56.0335 14.892 56.1449C15.0046 56.2563 15.1566 56.3198 15.3157 56.3221H45.066C45.2258 56.3221 45.3792 56.2593 45.4923 56.1474C45.6053 56.0355 45.6688 55.8838 45.6688 55.7256C45.6688 55.5674 45.6053 55.4156 45.4923 55.3038C45.3792 55.1919 45.2258 55.129 45.066 55.129Z" fill="#071546"/>
<path d="M48.474 14.7405H21.4302C20.7549 14.7405 20.1072 15.0059 19.6296 15.4785C19.1521 15.951 18.8838 16.5919 18.8838 17.2602V41.3205H48.474C48.8085 41.3205 49.1396 41.2553 49.4486 41.1287C49.7576 41.002 50.0383 40.8164 50.2748 40.5824C50.5113 40.3483 50.6988 40.0705 50.8268 39.7648C50.9547 39.459 51.0206 39.1313 51.0205 38.8004V17.2602C51.0205 16.5919 50.7522 15.951 50.2747 15.4785C49.7971 15.0059 49.1494 14.7405 48.474 14.7405Z" fill="white"/>
<path d="M48.4734 14.1438H24.86C23.7407 14.1438 22.621 14.1339 21.5017 14.1438C20.8744 14.1372 20.2591 14.3135 19.7323 14.6505C19.2055 14.9875 18.7906 15.4705 18.5393 16.0392C18.3364 16.5779 18.2488 17.1523 18.282 17.7262V29.8367C18.282 33.5989 18.2189 37.367 18.282 41.1291C18.282 41.1924 18.282 41.2564 18.282 41.32C18.2843 41.4775 18.3486 41.6279 18.4611 41.7393C18.5737 41.8507 18.7257 41.9143 18.8849 41.9166H48.0186C48.5679 41.9475 49.1179 41.8711 49.6375 41.6919C50.2356 41.448 50.7453 41.031 51.0998 40.4956C51.4543 39.9602 51.6371 39.3313 51.6245 38.6913C51.6506 34.6587 51.6245 30.6249 51.6245 26.5923V19.5643C51.6245 18.1327 51.8736 16.425 50.8769 15.2482C50.5791 14.9056 50.2107 14.6298 49.7966 14.4394C49.3824 14.2489 48.9319 14.1482 48.4751 14.1438C47.6991 14.1231 47.6995 15.3162 48.4751 15.3369C48.7418 15.3427 49.0044 15.4016 49.2476 15.5098C49.4908 15.6181 49.7096 15.7736 49.8909 15.9671C50.0721 16.1606 50.2123 16.3882 50.303 16.6364C50.3937 16.8845 50.4329 17.1482 50.4188 17.4117C50.4212 17.9287 50.4188 18.4429 50.4188 18.9583V38.2495C50.4845 38.8143 50.3674 39.3852 50.0844 39.88C49.8694 40.1678 49.5835 40.3964 49.254 40.5439C48.9245 40.6914 48.5622 40.753 48.2019 40.7227H22.6716C21.4764 40.7227 20.2441 40.6368 19.0509 40.7227C18.9958 40.7267 18.9387 40.7227 18.8832 40.7227L19.4861 41.3192V18.699C19.4861 18.2615 19.4837 17.8241 19.4861 17.3866C19.4625 16.8811 19.6369 16.386 19.973 16.0045C20.3091 15.6231 20.7809 15.3846 21.2903 15.3389C22.1656 15.2772 23.0643 15.3353 23.9429 15.3353H37.8456C41.3285 15.3353 44.8193 15.4065 48.3018 15.3353C48.3597 15.3353 48.4176 15.3353 48.4754 15.3353C48.6353 15.3353 48.7887 15.2725 48.9017 15.1606C49.0148 15.0487 49.0784 14.897 49.0784 14.7388C49.0784 14.5806 49.0148 14.4288 48.9017 14.317C48.7887 14.2051 48.6353 14.1422 48.4754 14.1422" fill="#071546"/>
<path d="M28.4051 21.3366L22.8564 26.8271L22.0667 27.6086C21.9569 27.7211 21.8961 27.8718 21.8975 28.0282C21.8988 28.1846 21.9622 28.3342 22.074 28.4448C22.1858 28.5554 22.337 28.6182 22.4951 28.6195C22.6531 28.6209 22.8054 28.5608 22.9191 28.4521L28.4682 22.9616L29.2576 22.1801C29.3674 22.0676 29.4281 21.9169 29.4268 21.7605C29.4254 21.6041 29.362 21.4545 29.2502 21.3439C29.1384 21.2333 28.9872 21.1705 28.8292 21.1692C28.6711 21.1678 28.5188 21.2279 28.4051 21.3366Z" fill="#071546"/>
<path d="M29.2567 33.8801L23.7462 28.4273L22.9622 27.6518C22.8485 27.5432 22.6961 27.483 22.538 27.4844C22.38 27.4858 22.2288 27.5485 22.117 27.6591C22.0052 27.7697 21.9419 27.9193 21.9405 28.0757C21.9392 28.2321 21.9998 28.3828 22.1096 28.4953C23.9463 30.3133 25.7833 32.1309 27.6203 33.9481C27.8815 34.2071 28.1428 34.4656 28.4043 34.7236C28.518 34.8322 28.6703 34.8923 28.8283 34.891C28.9864 34.8896 29.1377 34.8269 29.2495 34.7163C29.3612 34.6057 29.4246 34.4561 29.426 34.2997C29.4274 34.1432 29.3665 33.9926 29.2567 33.8801Z" fill="#071546"/>
<path d="M37.9528 19.753C37.1656 21.5466 36.3784 23.34 35.5912 25.1333C34.3354 27.9967 33.0792 30.8589 31.8226 33.7199C31.5324 34.3827 31.2419 35.0445 30.9512 35.7052C30.6454 36.4023 31.6839 37.0108 31.9926 36.3073C32.7795 34.5139 33.5666 32.7205 34.3538 30.9269C35.6101 28.0635 36.8663 25.2014 38.1224 22.3404C38.4131 21.6776 38.7036 21.0158 38.9937 20.3551C39.3 19.6579 38.2615 19.0499 37.9528 19.753Z" fill="#071546"/>
<path d="M41.4992 34.7241L47.0479 29.2336L47.8376 28.4521C47.9475 28.3396 48.0082 28.1889 48.0069 28.0325C48.0055 27.8761 47.9421 27.7265 47.8303 27.6159C47.7185 27.5053 47.5673 27.4425 47.4093 27.4412C47.2512 27.4398 47.0989 27.4999 46.9852 27.6086L41.4361 33.0991L40.6468 33.8806C40.5369 33.9931 40.4762 34.1438 40.4776 34.3002C40.4789 34.4566 40.5423 34.6062 40.6541 34.7168C40.7659 34.8274 40.9171 34.8901 41.0751 34.8915C41.2332 34.8929 41.3855 34.8327 41.4992 34.7241Z" fill="#071546"/>
<path d="M40.6468 22.1801L46.1573 27.6329L46.9414 28.4088C47.0545 28.5206 47.2079 28.5834 47.3678 28.5834C47.5277 28.5834 47.681 28.5205 47.794 28.4086C47.9071 28.2966 47.9706 28.1449 47.9705 27.9867C47.9705 27.8284 47.9069 27.6767 47.7938 27.5649L42.2833 22.1125L41.4992 21.3366C41.3855 21.2279 41.2332 21.1678 41.0751 21.1692C40.9171 21.1705 40.7659 21.2333 40.6541 21.3439C40.5423 21.4545 40.4789 21.6041 40.4776 21.7605C40.4762 21.9169 40.5369 22.0676 40.6468 22.1801Z" fill="#071546"/>
</g>
</g>
<defs>
<clipPath id="clip0_1_1940">
<rect width="60" height="60" fill="white"/>
</clipPath>
</defs>
</svg>
