<svg width="13" height="13" viewBox="0 0 13 13" fill="none" xmlns="http://www.w3.org/2000/svg">
<g clip-path="url(#clip0_1_1124)">
<path d="M11.5 5.59267V6.05267C11.4994 7.13088 11.1503 8.18 10.5047 9.04358C9.85908 9.90715 8.95164 10.5389 7.91768 10.8446C6.88372 11.1503 5.77863 11.1136 4.76724 10.74C3.75584 10.3663 2.89233 9.67572 2.30548 8.7712C1.71863 7.86668 1.4399 6.7967 1.51084 5.72082C1.58178 4.64495 1.9986 3.62083 2.69914 2.8012C3.39968 1.98158 4.34639 1.41036 5.39809 1.17274C6.4498 0.935121 7.55013 1.04384 8.535 1.48267" stroke="white" stroke-linecap="round" stroke-linejoin="round"/>
<path d="M11.5 2.05273L6.5 7.05773L5 5.55773" stroke="white" stroke-linecap="round" stroke-linejoin="round"/>
</g>
<defs>
<clipPath id="clip0_1_1124">
<rect width="12" height="12" fill="white" transform="translate(0.5 0.0527344)"/>
</clipPath>
</defs>
</svg>
